<svg width="96.000000" height="96.000000" viewBox="0 0 96 96" fill="none" xmlns="http://www.w3.org/2000/svg" xmlns:xlink="http://www.w3.org/1999/xlink">
	<desc>
			Created with Pixso.
	</desc>
	<circle id="svg_1" cx="48.000000" cy="48.000000" r="48.000000" fill="#FFFFFF"/>
	<path id="path" d="M55.2053 22L40.7946 22C40.3129 22 39.9272 22.3998 39.9166 22.8968C39.6255 36.8665 32.5451 50.1254 20.3582 59.5167C19.9713 59.8148 19.8831 60.3749 20.166 60.7783L28.5975 72.8125C28.8844 73.2221 29.4433 73.3145 29.8367 73.0136C37.4568 67.1798 43.586 60.1423 47.9999 52.3419C52.4139 60.1423 58.5434 67.1798 66.1636 73.0136C66.5566 73.3145 67.1156 73.2221 67.4028 72.8125L75.8344 60.7783C76.1168 60.3749 76.0286 59.8148 75.6421 59.5167C63.4549 50.1254 56.3745 36.8665 56.0837 22.8968C56.0732 22.3998 55.687 22 55.2053 22Z" fill-rule="nonzero" fill="#FF875B"/>
	<defs/>
</svg>
