<?xml version="1.0" encoding="UTF-8"?>
<svg width="32px" height="32px" viewBox="0 0 32 32" version="1.1" xmlns="http://www.w3.org/2000/svg" xmlns:xlink="http://www.w3.org/1999/xlink">
    <title>brave</title>
    <defs>
        <linearGradient x1="0.00183385292%" y1="100.706144%" x2="100%" y2="100.706144%" id="linearGradient-1">
            <stop stop-color="#FF5500" offset="0%"></stop>
            <stop stop-color="#FF5500" offset="41%"></stop>
            <stop stop-color="#FF2000" offset="58.2%"></stop>
            <stop stop-color="#FF2000" offset="100%"></stop>
        </linearGradient>
        <linearGradient x1="2.14763914%" y1="99.6350365%" x2="100%" y2="99.6350365%" id="linearGradient-2">
            <stop stop-color="#FF452A" offset="0%"></stop>
            <stop stop-color="#FF2000" offset="100%"></stop>
        </linearGradient>
    </defs>
    <g id="Page-1" stroke="none" stroke-width="1" fill="none" fill-rule="evenodd">
        <g id="brave">
            <circle id="Oval" fill="#FFFFFF" fill-rule="nonzero" cx="16" cy="16" r="16"></circle>
            <path d="M25.3002017,10.6192921 L25.8503576,9.27104346 C25.8503576,9.27104346 25.1501926,8.52173116 24.3000183,7.67265725 C23.4502109,6.82358335 21.6501009,7.32312489 21.6501009,7.32312489 L19.6002201,5 L12.4001467,5 L10.3502659,7.32312489 C10.3502659,7.32312489 8.55015588,6.82358335 7.70034843,7.67265725 C6.85017422,8.52173116 6.15037594,9.27104346 6.15037594,9.27104346 L6.70053182,10.6192921 L6,12.6170915 C6,12.6170915 8.05905006,20.4058317 8.30038511,21.3572345 C8.77535302,23.2299652 9.10031175,23.9539703 10.4503943,24.9031726 C11.80011,25.8520081 14.2501375,27.4999083 14.6499175,27.7500458 C15.0500642,27.9994498 15.5503393,28.4249037 16.0003668,28.4249037 C16.4503943,28.4249037 16.9503026,27.9994498 17.3500825,27.7500458 C17.7502292,27.5002751 20.19989,25.8520081 21.5503393,24.9031726 C22.900055,23.9543371 23.2253805,23.2299652 23.7003484,21.3572345 C23.9413167,20.4058317 26,12.6170915 26,12.6170915 L25.3002017,10.6192921 Z" id="Path" fill="url(#linearGradient-1)"></path>
            <path d="M18.5501559,9.22079589 C18.8501742,9.22079589 21.0753714,8.79644233 21.0753714,8.79644233 C21.0753714,8.79644233 23.7120851,11.980011 23.7120851,12.6607372 C23.7120851,13.2233633 23.4850541,13.4434256 23.2180451,13.7030992 C23.162296,13.7573813 23.1043462,13.8131304 23.0467632,13.8747478 L21.0698698,15.9715753 C21.0486476,15.9938681 21.0271285,16.0158763 21.0053182,16.037594 C20.8079956,16.2356501 20.5175133,16.5275995 20.7221713,17.0124702 L20.7643499,17.1111315 C20.9891803,17.636347 21.2668256,18.2847974 20.9136255,18.9413167 C20.5376857,19.6403814 19.8940033,20.1069136 19.4813864,20.029525 C19.0691363,19.9525032 18.1001284,19.4467266 17.7439941,19.2160279 C17.3878599,18.9849624 16.2585733,18.0548322 16.2585733,17.698698 C16.2585733,17.4019806 17.0706033,16.9083074 17.4652485,16.6680726 C17.5437374,16.6203924 17.6057216,16.5829818 17.6412984,16.558775 C17.6820099,16.5312672 17.7502292,16.4890886 17.8342197,16.4370072 C18.1940216,16.2132771 18.8443059,15.8098295 18.8608106,15.6312122 C18.8809829,15.4104163 18.8732808,15.3458647 18.5827985,14.8008436 C18.521181,14.6849441 18.4489272,14.5609756 18.3744728,14.4326059 C18.0979277,13.957638 17.7883734,13.4258206 17.8573262,13.044746 C17.9343481,12.6145241 18.6092059,12.3680543 19.1806345,12.158995 C19.251788,12.1333211 19.3218412,12.1076472 19.3885934,12.08234 L19.9838621,11.8589767 C20.5545571,11.6455162 21.1883367,11.4082157 21.2932331,11.3601687 C21.4377407,11.2937832 21.4003301,11.2299652 20.9620392,11.1885201 C20.8910916,11.181563 20.8201817,11.1742275 20.7493123,11.1665138 C20.2064918,11.1089309 19.2055749,11.0029342 18.7192371,11.1382725 C18.62351,11.1650468 18.516413,11.1940216 18.4038144,11.2244636 C17.8573262,11.3722721 17.1872364,11.5534568 17.1226848,11.6579864 C17.1116816,11.676325 17.1006785,11.6920961 17.0900422,11.7067669 C17.0284247,11.7940583 16.9884467,11.8512745 17.0566661,12.2224464 C17.0768384,12.3332111 17.1186503,12.550706 17.1703649,12.8199156 C17.3207409,13.6077389 17.5565744,14.8364203 17.5862828,15.1122318 C17.5903173,15.1511095 17.5950853,15.1881533 17.5994865,15.2240968 C17.6372639,15.5321841 17.6622043,15.7372089 17.3042362,15.8189987 L17.2107097,15.8402714 C16.8065285,15.9326976 16.214194,16.0687695 16.0003668,16.0687695 C15.7861727,16.0687695 15.1934715,15.9330644 14.7892903,15.8402714 L14.6961306,15.8189987 C14.3381625,15.7372089 14.3634696,15.5321841 14.401247,15.2240968 C14.4056483,15.1881533 14.4100495,15.1507427 14.414084,15.1122318 C14.4437924,14.8360535 14.6799927,13.6040712 14.8311021,12.8166147 C14.88245,12.5488722 14.9238951,12.3324775 14.9440675,12.2224464 C15.01192,11.8512745 14.9719421,11.7940583 14.9103246,11.7067669 C14.8989739,11.6907447 14.8879682,11.6744808 14.8773152,11.6579864 C14.8134972,11.5534568 14.1437741,11.3722721 13.5969191,11.2244636 C13.4843206,11.1940216 13.3768568,11.1650468 13.2814964,11.1382725 C12.7947919,11.0025674 11.7942417,11.1089309 11.2514212,11.1665138 C11.1685311,11.1753163 11.096644,11.1830185 11.0386943,11.1885201 C10.6000367,11.2299652 10.5629928,11.2937832 10.7075005,11.3601687 C10.8120301,11.4082157 11.4458096,11.6455162 12.0161379,11.8589767 C12.2350999,11.9407666 12.4452595,12.0192555 12.6117733,12.08234 C12.6788924,12.1076472 12.7485788,12.1329543 12.820099,12.1593618 C13.3915276,12.3684211 14.0663855,12.6145241 14.1434073,13.044746 C14.2119934,13.4258206 13.902439,13.957638 13.6262608,14.4326059 C13.5514396,14.5609756 13.4795525,14.6849441 13.4175683,14.8008436 C13.1274528,15.3458647 13.1197506,15.4104163 13.139923,15.6312122 C13.1560609,15.8101962 13.8059784,16.2132771 14.1661471,16.4370072 C14.2501375,16.4890886 14.3183569,16.5312672 14.3590684,16.558775 C14.3950119,16.5829818 14.4566294,16.6203924 14.5351183,16.6680726 C14.9297634,16.9079406 15.7417935,17.4016138 15.7417935,17.698698 C15.7417935,18.0544654 14.6128736,18.9849624 14.2563726,19.2160279 C13.9006052,19.4470933 12.9315973,19.9525032 12.5189804,20.029525 C12.1067302,20.1065469 11.4626811,19.6403814 11.087108,18.9416835 C10.7339079,18.2847974 11.0111865,17.636347 11.2360169,17.1114983 L11.2781955,17.0124702 C11.4832202,16.5275995 11.1927379,16.2356501 10.9950486,16.037594 C10.97336,16.0158751 10.9519631,15.9938669 10.9308637,15.9715753 L8.95397029,13.8747478 C8.89602054,13.8134972 8.83807079,13.7573813 8.78232166,13.7030992 C8.51531267,13.4437924 8.28864845,13.2233633 8.28864845,12.6607372 C8.28864845,11.9803778 10.9253622,8.79644233 10.9253622,8.79644233 C10.9253622,8.79644233 13.1501926,9.22079589 13.4502109,9.22079589 C13.6897121,9.22079589 14.151843,9.06198423 14.6337796,8.89620392 C14.7559142,8.85439208 14.8791491,8.81184669 15.0005502,8.77150193 C15.6002201,8.57161196 16.0003668,8.57014487 16.0003668,8.57014487 C16.0003668,8.57014487 16.4001467,8.57161196 17.0001834,8.77150193 C17.1212177,8.81184669 17.2448194,8.85439208 17.366954,8.89620392 C17.8485237,9.06198423 18.3110215,9.22079589 18.5501559,9.22079589 L18.5501559,9.22079589 Z M18.1683477,20.4828535 C18.6385476,20.7249221 18.9723088,20.8965707 19.0984779,20.9754264 C19.2616908,21.0773886 19.162296,21.2699432 19.0133871,21.3752063 C18.864845,21.4797359 16.8666789,23.0253072 16.673024,23.1962223 L16.5941683,23.2662754 C16.4074821,23.4346231 16.1690812,23.6491839 16,23.6491839 C15.8312855,23.6491839 15.5928847,23.4342564 15.4058317,23.2662754 L15.3277095,23.1962223 C15.1333211,23.0253072 13.1355217,21.4797359 12.9869796,21.3748395 C12.8384376,21.2699432 12.738676,21.0777554 12.9018889,20.9750596 C13.0280579,20.8965707 13.362186,20.7245553 13.8331194,20.4821199 L14.2805795,20.2514212 C14.984779,19.8875848 15.8631946,19.5776637 16.0003668,19.5776637 C16.1371722,19.5776637 17.015221,19.887218 17.720154,20.2514212 C17.880066,20.3343114 18.0300752,20.4117 18.1683477,20.4824867 L18.1683477,20.4828535 Z" id="Shape" fill="#FFFFFF"></path>
            <path d="M21.6501009,7.32312489 L19.6002201,5 L12.4001467,5 L10.3502659,7.32312489 C10.3502659,7.32312489 8.55015588,6.82358335 7.70034843,7.67265725 C7.70034843,7.67265725 10.1004951,7.45626261 10.9253622,8.79644233 C10.9253622,8.79644233 13.1501926,9.22079589 13.4502109,9.22079589 C13.7502292,9.22079589 14.4001467,8.97139189 15.0001834,8.77150193 C15.6002201,8.57161196 16.0003668,8.57014487 16.0003668,8.57014487 C16.0003668,8.57014487 16.4001467,8.57161196 17.0001834,8.77150193 C17.6002201,8.97139189 18.2501375,9.22079589 18.5501559,9.22079589 C18.8501742,9.22079589 21.0753714,8.79644233 21.0753714,8.79644233 C21.9002384,7.45626261 24.3000183,7.67265725 24.3000183,7.67265725 C23.4502109,6.82358335 21.6501009,7.32312489 21.6501009,7.32312489 L21.6501009,7.32312489 Z" id="Path" fill="url(#linearGradient-2)"></path>
        </g>
    </g>
</svg>