<?xml version="1.0" encoding="UTF-8"?>
<svg width="96px" height="96px" viewBox="0 0 96 96" version="1.1" xmlns="http://www.w3.org/2000/svg" xmlns:xlink="http://www.w3.org/1999/xlink">
    <title>crypto.com</title>
    <g id="Page-1" stroke="none" stroke-width="1" fill="none" fill-rule="evenodd">
        <g id="crypto.com">
            <path d="M96,48 C96,21.4903 74.5097,0 48,0 C21.4903,0 0,21.4903 0,48 C0,74.5097 21.4903,96 48,96 C74.5097,96 96,74.5097 96,48 Z" id="svg_1" fill="#061121" fill-rule="nonzero"></path>
            <polygon id="Path" fill="#FFFFFF" fill-rule="nonzero" points="54.9149551 42.1763636 52.6657084 48.2892735 53.3207217 55.1179808 48.0555036 55.1430924 42.8399455 55.1430924 43.5445718 48.2892735 41.2455478 42.1763636"></polygon>
            <polygon id="Path" fill="#FFFFFF" fill-rule="nonzero" points="61.181116 44.2223708 54.989351 48.3143851 54.989351 55.5824278 50.2679044 60.1891122 50.2679044 62.3606772 54.82859 66.6160342 58.6352241 66.6160342 68.2384092 49.6199526"></polygon>
            <polygon id="Path" fill="#FFFFFF" fill-rule="nonzero" points="37.4636967 29.5860503 58.585705 29.5860503 61.1318316 40.531907 35.0041934 40.531907"></polygon>
            <polygon id="Path" fill="#FFFFFF" fill-rule="nonzero" points="41.220976 48.3143851 34.9547212 44.2725939 27.8728563 49.6199526 37.525537 66.6662574 41.3816432 66.6662574 45.9421411 62.3606772 45.9421411 60.1891122 41.220976 55.5824278"></polygon>
            <path d="M20.0742282,31.3936148 L48.0925843,15 L76,31.4438145 L76,64.2686881 L47.9691386,80.7125495 L20,64.2562496 L20,31.3936148 L20.0742282,31.3936148 Z M48.0925843,18.3515278 L22.8672967,33.1133122 L22.8672967,62.6369046 L48.0925843,77.3987595 L73.2067473,62.6369046 L73.2067473,33.1133122 L48.0925843,18.3515278 Z" id="Shape" fill="#FFFFFF"></path>
        </g>
    </g>
</svg>