<svg width="32.000000" height="32.000000" viewBox="0 0 32 32" fill="none" xmlns="http://www.w3.org/2000/svg" xmlns:xlink="http://www.w3.org/1999/xlink">
	<desc>
			Created with Pixso.
	</desc>
	<circle id="circle" cx="16.000000" cy="16.000000" r="16.000000" fill="#FFFFFF"/>
	<path id="path" d="M8 18.9734L8 22.9283L14.0183 22.9283L14.0183 22.0512L8.87688 22.0512L8.87688 18.9734L8 18.9734ZM23.1231 18.9734L23.1231 22.0512L17.9817 22.0512L17.9817 22.9281L24 22.9281L24 18.9734L23.1231 18.9734ZM14.027 12.9549L14.027 18.9732L17.9817 18.9732L17.9817 18.1822L14.9039 18.1822L14.9039 12.9549L14.027 12.9549ZM8 9L8 12.9549L8.87688 12.9549L8.87688 9.87688L14.0183 9.87688L14.0183 9L8 9ZM17.9817 9L17.9817 9.87688L23.1231 9.87688L23.1231 12.9549L24 12.9549L24 9L17.9817 9Z" fill-rule="nonzero" fill="#000000"/>
	<defs/>
</svg>
