<?xml version="1.0" encoding="UTF-8"?>
<svg width="32px" height="32px" viewBox="0 0 32 32" version="1.1" xmlns="http://www.w3.org/2000/svg" xmlns:xlink="http://www.w3.org/1999/xlink">
    <title>near</title>
    <g id="Page-1" stroke="none" stroke-width="1" fill="none" fill-rule="evenodd">
        <g id="near" fill-rule="nonzero">
            <circle id="Oval" fill="#FFFFFF" cx="16" cy="16" r="16"></circle>
            <path d="M22.0444,7.02222 L17.8667,13.22222 C17.5778,13.64444 18.1333,14.15556 18.5333,13.8 L22.6444,10.22222 C22.7556,10.13333 22.9111,10.2 22.9111,10.35556 L22.9111,21.5333 C22.9111,21.6889 22.7111,21.7556 22.6222,21.6444 L10.17778,6.755556 C9.77778,6.266667 9.2,6 8.55556,6 L8.11111,6 C6.955556,6 6,6.955556 6,8.13333 L6,23.8667 C6,25.0444 6.955556,26 8.13333,26 C8.86667,26 9.55556,25.6222 9.95556,24.9778 L14.13333,18.7778 C14.42222,18.3556 13.86667,17.8444 13.46667,18.2 L9.35556,21.7556 C9.24444,21.8444 9.08889,21.7778 9.08889,21.6222 L9.08889,10.46667 C9.08889,10.31111 9.28889,10.24444 9.37778,10.35556 L21.8222,25.2444 C22.2222,25.7333 22.8222,26 23.4444,26 L23.8889,26 C25.0667,26 26.0222,25.0444 26.0222,23.8667 L26.0222,8.13333 C26,6.955556 25.0444,6 23.8667,6 C23.1333,6 22.4444,6.377778 22.0444,7.02222 Z" id="Path" fill="#000000"></path>
        </g>
    </g>
</svg>