<?xml version="1.0" encoding="UTF-8"?>
<svg width="32px" height="32px" viewBox="0 0 32 32" version="1.1" xmlns="http://www.w3.org/2000/svg" xmlns:xlink="http://www.w3.org/1999/xlink">
    <title>petra</title>
    <g id="Page-1" stroke="none" stroke-width="1" fill="none" fill-rule="evenodd">
        <g id="petra">
            <circle id="Oval" fill="#FD6263" fill-rule="nonzero" cx="16" cy="16" r="16"></circle>
            <path d="M22.56,8.96 C22.57336,10.02696 22.56,11.09368 22.52,12.16 C22.47864,12.59184 22.44,13 22.32,13.44 C22.13416,13.86328 22,14.32 21.76,14.72 C21.36072,15.22584 20.93408,15.70584 20.48,16.16 C19.716,16.76376 18.86264,17.1904 17.92,17.44 C17.48,17.52 17.08,17.52 16.64,17.52 C16.64,14.05336 16.64,10.58664 16.64,7.12 C16.77336,7.12 22.45336,8.96 22.56,8.96 Z" id="Path" fill="#FEFDFD"></path>
            <path d="M15.2,6.96 C15.35976,12.95944 15.41312,18.98608 15.36,25.04 C15.16,25.08 14.61336,25.04 14.56,25.04 C13.20384,24.85528 12.0572,24.26864 11.12,23.28 C10.34416,22.50232 9.83752,21.56896 9.6,20.48 C9.6,20.32 9.70648,12.97352 9.64,9.44 C9.60936,9.39552 15.04632,7.029016 15.2,6.96 Z" id="Path" fill="#FEFEFD"></path>
        </g>
    </g>
</svg>