<svg width="80" height="70" viewBox="0 0 80 70" fill="none" xmlns="http://www.w3.org/2000/svg">
<mask id="mask0_1_526" style="mask-type:alpha" maskUnits="userSpaceOnUse" x="0" y="0" width="80" height="70">
<path d="M22.6933 27.7295L22.1232 29.6134C21.4391 31.9094 19.3867 33.499 16.9923 33.499C13.4007 33.499 10.8353 29.9078 11.8614 26.3754L12.4315 24.4915C13.1157 22.1954 15.168 20.6058 17.5624 20.6058C21.154 20.6058 23.7195 24.1971 22.6933 27.7295Z" fill="black"/>
<path d="M79.4162 27.0816C79.4162 42.0353 67.6722 54.1632 53.1917 54.1632H33.2952L30.2737 67.704C29.9887 69.058 28.7914 70 27.4802 70H26.112C21.5512 70 18.1306 65.5845 19.1568 60.9924L20.696 54.1632L22.7484 44.8612C23.2045 42.6829 25.0858 41.1522 27.1952 41.1522H45.4383C47.0916 41.1522 48.5739 40.0925 49.087 38.5029C49.201 38.0908 49.258 37.6787 49.258 37.3255C49.258 35.2649 47.6617 33.4987 45.5524 33.4987H33.0672C30.0457 33.4987 27.5942 31.2616 27.0241 28.4945C26.8531 27.6114 26.7961 26.6695 27.0241 25.7275V25.6686V25.5509C27.7083 22.6072 30.2167 20.5467 33.1242 20.5467H50.0561C51.6524 20.5467 53.1917 19.5458 53.7048 17.9563C53.8188 17.5442 53.9328 17.132 53.9328 16.6611C53.9328 14.6005 52.3365 12.8343 50.2272 12.8343H6.27254C2.05381 12.9521 -0.967715 8.7132 0.286503 4.59209C1.08464 1.82506 3.53607 0 6.27254 0H53.1917C67.6722 0 79.4162 12.1278 79.4162 27.0816Z" fill="black"/>
</mask>
<g mask="url(#mask0_1_526)">
<path d="M-14.1216 93.3328L-14.1216 -1.9456L87.5562 -1.94561L87.5562 93.3328L-14.1216 93.3328Z" fill="url(#paint0_radial_1_526)"/>
</g>
<defs>
<radialGradient id="paint0_radial_1_526" cx="0" cy="0" r="1" gradientUnits="userSpaceOnUse" gradientTransform="translate(3.35755 50.8181) rotate(-36.3081) scale(72.2175 66.1943)">
<stop stop-color="#85EAFF"/>
<stop offset="0.706211" stop-color="#DADADA"/>
<stop offset="1" stop-color="#FFCB80"/>
</radialGradient>
</defs>
</svg>
