<?xml version="1.0" encoding="UTF-8"?>
<svg width="32px" height="32px" viewBox="0 0 32 32" version="1.1" xmlns="http://www.w3.org/2000/svg" xmlns:xlink="http://www.w3.org/1999/xlink">
    <title>pontem</title>
    <defs>
        <linearGradient x1="1.5625%" y1="50.0002379%" x2="101.565238%" y2="49.8646225%" id="linearGradient-1">
            <stop stop-color="#8D29C1" offset="8.58%"></stop>
            <stop stop-color="#942BBB" offset="23.83%"></stop>
            <stop stop-color="#A92FAC" offset="46.67%"></stop>
            <stop stop-color="#CA3793" offset="74.13%"></stop>
            <stop stop-color="#F03F77" offset="100%"></stop>
            <stop stop-color="#F03F77" offset="100%"></stop>
        </linearGradient>
    </defs>
    <g id="Page-1" stroke="none" stroke-width="1" fill="none" fill-rule="evenodd">
        <g id="pontem" fill-rule="nonzero">
            <circle id="Oval" fill="#FFFFFF" cx="16" cy="16" r="16"></circle>
            <path d="M16,4.35 C9.38202286,4.35 4,9.72700571 4,16.3388 C4,21.0910286 6.78211429,25.2086286 10.8050857,27.1469143 L10.8050857,27.1567429 L10.8247886,27.1567429 C12.39064,27.9094286 14.1485486,28.3325143 16,28.3325143 C22.6179429,28.3325143 28,22.9554857 28,16.3437143 C28,9.72700571 22.6179429,4.35 16,4.35 Z M16,5.33389943 C22.0714286,5.33389943 27.0152,10.2730743 27.0152,16.3388 C27.0152,18.0802857 26.6065143,19.7333143 25.8826286,21.1992571 C24.2970286,20.4318286 22.6868571,19.8612 21.0619429,19.4725143 L21.0619429,10.2927543 C21.0619429,9.97298286 20.8108571,9.71716571 20.4956571,9.71716571 L18.4768,9.71716571 L13.3902286,9.71716571 L11.37136,9.71716571 C11.0611429,9.71716571 10.8050857,9.97298286 10.8050857,10.2927543 L10.8050857,19.5168571 C9.22938286,19.9054286 7.66352,20.4662286 6.12228571,21.2041714 C5.39352,19.7333143 4.98481714,18.0852 4.98481714,16.3388 C4.98481714,10.2730743 9.92860571,5.33389943 16,5.33389943 Z M6.75748571,22.3110286 C8.06237714,21.6666857 9.41649143,21.1697714 10.8100114,20.8254286 L10.8100114,26.0400571 C9.16044571,25.1594857 7.76692571,23.8705714 6.75748571,22.3110286 Z M13.3902286,27.0288571 L13.3902286,14.7448914 C13.3902286,13.3231657 14.5572457,12.1474057 15.9507429,12.1474057 C17.3442286,12.1474057 18.4768,13.29856 18.4768,14.7153829 C18.4768,14.7252229 18.4718857,14.7350629 18.4718857,14.7448914 L18.4768,14.7448914 L18.4768,19.0199429 C17.2900571,18.8822286 16.0985143,18.8378857 14.9068571,18.9018857 L13.92696,20.3236 C15.4533714,20.1957143 16.9404571,20.2055429 18.4078857,20.3728571 C18.4226286,20.3728571 18.4324571,20.3728571 18.4473143,20.3777714 C18.4571429,20.3777714 18.4669714,20.3777714 18.4817143,20.3826857 C18.7378286,20.4121714 19.6684571,20.5302286 20.5203429,20.7417714 L18.4817143,21.4353714 L18.4817143,27.0682857 C17.684,27.2502286 16.8568,27.3535429 16.0098286,27.3535429 C15.0988914,27.3437143 14.2273257,27.2305714 13.3902286,27.0288571 Z M21.0570286,26.1089714 L21.0570286,20.85 C22.4456,21.1992571 23.8194286,21.7109143 25.1981714,22.3799429 C24.1641143,23.9493143 22.7361143,25.2382286 21.0570286,26.1089714 Z" id="Shape" fill="url(#linearGradient-1)"></path>
        </g>
    </g>
</svg>