<?xml version="1.0" encoding="UTF-8"?>
<svg width="32px" height="32px" viewBox="0 0 32 32" version="1.1" xmlns="http://www.w3.org/2000/svg" xmlns:xlink="http://www.w3.org/1999/xlink">
    <title>unstoppabledomains</title>
    <g id="Page-1" stroke="none" stroke-width="1" fill="none" fill-rule="evenodd">
        <g id="unstoppabledomains" fill-rule="nonzero">
            <circle id="Oval" fill="#FFFFFF" cx="16" cy="16" r="16"></circle>
            <polygon id="Path" fill="#00C9FF" points="26.5 6.32504501 26.5 13.8146773 4.5 22.6644624"></polygon>
            <path d="M22.3756544,6 L22.3756544,18.9201066 C22.3756544,20.7256143 21.6512863,22.4572183 20.3618909,23.733917 C19.0724954,25.0106664 17.3236928,25.7279021 15.5002276,25.7279021 C13.6767625,25.7279021 11.9279598,25.0106664 10.6385644,23.733917 C9.34917398,22.4572183 8.62480082,20.7256143 8.62480082,18.9201066 L8.62480082,13.4759138 L12.7493487,11.2283493 L12.7493487,18.9201066 C12.7107529,19.2557844 12.7441891,19.5957619 12.8474824,19.917782 C12.9508262,20.2398021 13.1216496,20.53653 13.3488746,20.7885918 C13.5760996,21.0406537 13.8545159,21.2423336 14.1659133,21.3804289 C14.4773612,21.5185242 14.8147083,21.5899493 15.1559504,21.5899493 C15.497142,21.5899493 15.8345397,21.5185242 16.145937,21.3804289 C16.4573344,21.2423336 16.7358013,21.0406537 16.9629757,20.7885918 C17.1902007,20.53653 17.3610746,20.2398021 17.4643679,19.917782 C17.5677118,19.5957619 17.601148,19.2557844 17.5625016,18.9201066 L17.5625016,8.60731542 L22.3756544,6 Z" id="Path" fill="#0D67FE"></path>
        </g>
    </g>
</svg>