<svg width="96.000000" height="96.000000" viewBox="0 0 96 96" fill="none" xmlns="http://www.w3.org/2000/svg" xmlns:xlink="http://www.w3.org/1999/xlink">
	<desc>
			Created with Pixso.
	</desc>
	<circle id="svg_1" cx="48.000000" cy="48.000000" r="48.000000" fill="#FFFFFF"/>
	<path id="path" d="M56.759 22.9666C56.85 23.1207 56.7296 23.3112 56.5507 23.3112C52.9274 23.3112 49.982 26.1799 49.9129 29.7445C48.6722 29.5129 47.3867 29.4955 46.1167 29.7094C46.029 26.1611 43.091 23.3112 39.4796 23.3112C39.3006 23.3112 39.1801 23.1206 39.2711 22.9664C41.025 19.996 44.2842 18 48.015 18C51.7459 18 55.0051 19.9961 56.759 22.9666Z" fill-rule="nonzero" fill="url(#paint_linear_2_6_0)"/>
	<path id="path" d="M68.2684 45.1843C69.1821 45.4611 70.0474 44.6591 69.742 43.7545C66.5585 34.3252 56.0019 30.48 48.0368 30.48C40.0586 30.48 29.2664 34.4472 26.3343 43.7968C26.0526 44.6952 26.9153 45.4701 27.8154 45.1943L47.3277 39.2152C47.726 39.0931 48.1516 39.0924 48.5504 39.2133L68.2684 45.1843Z" fill-rule="nonzero" fill="url(#paint_linear_2_7_0)"/>
	<path id="path" d="M26.3302 46.7667L47.2887 40.4102C47.6845 40.2903 48.1072 40.2899 48.5033 40.4093L69.5921 46.7698C71.3354 47.2955 72.5284 48.9015 72.5284 50.7224L72.5284 69.6933C72.4476 74.3239 68.2877 78.0356 63.6586 78.0356L55.9697 78.0356C55.2097 78.0356 54.5942 77.4208 54.5942 76.6607L54.5942 70.0093C54.5942 67.3902 56.1443 65.0197 58.5428 63.9706C61.7581 62.5641 65.5618 60.6617 66.2772 56.8443C66.5081 55.6121 65.7047 54.4236 64.4756 54.1793C61.3681 53.5617 57.9229 53.8002 55.0096 55.1033C51.7022 56.5826 50.8371 59.0433 50.5168 62.3479L50.1286 65.9081C50.0099 66.9962 48.9898 67.8298 47.8957 67.8298C46.764 67.8298 45.9154 66.9678 45.7926 65.8421L45.4116 62.3479C45.1373 59.5173 44.64 56.7676 41.7137 55.4587C38.3756 53.9658 35.0212 53.47 31.4527 54.1793C30.2237 54.4236 29.4203 55.6121 29.6512 56.8443C30.3728 60.6949 34.1467 62.5537 37.3855 63.9706C39.7842 65.0197 41.3342 67.3902 41.3342 70.0093L41.3342 76.6595C41.3342 77.4196 40.7189 78.0356 39.9589 78.0356L32.2699 78.0356C27.6407 78.0356 23.4808 74.3239 23.4 69.6933L23.4 50.7174C23.4 48.8988 24.59 47.2944 26.3302 46.7667Z" fill-rule="nonzero" fill="url(#paint_linear_2_8_0)"/>
	<defs>
		<linearGradient id="paint_linear_2_6_0" x1="47.518307" y1="14.760004" x2="69.059525" y2="78.285126" gradientUnits="userSpaceOnUse">
			<stop stop-color="#F5D45E"/>
			<stop offset="1.000000" stop-color="#FF9600"/>
		</linearGradient>
		<linearGradient id="paint_linear_2_7_0" x1="47.518318" y1="14.760014" x2="69.059525" y2="78.285141" gradientUnits="userSpaceOnUse">
			<stop stop-color="#F5D45E"/>
			<stop offset="1.000000" stop-color="#FF9600"/>
		</linearGradient>
		<linearGradient id="paint_linear_2_8_0" x1="47.518326" y1="14.760001" x2="69.059502" y2="78.285133" gradientUnits="userSpaceOnUse">
			<stop stop-color="#F5D45E"/>
			<stop offset="1.000000" stop-color="#FF9600"/>
		</linearGradient>
	</defs>
</svg>
