<?xml version="1.0" encoding="UTF-8"?>
<svg width="32px" height="32px" viewBox="0 0 32 32" version="1.1" xmlns="http://www.w3.org/2000/svg" xmlns:xlink="http://www.w3.org/1999/xlink">
    <!-- Generator: Sketch 63 (92445) - https://sketch.com -->
    <title>bscwallet</title>
    <desc>Created with Sketch.</desc>
    <g id="Page-1" stroke="none" stroke-width="1" fill="none" fill-rule="evenodd">
        <g id="bscwallet" fill-rule="nonzero">
            <path d="M32,16 C32,7.16343333 24.8365667,0 16,0 C7.16343333,0 0,7.16343333 0,16 C0,24.8365667 7.16343333,32 16,32 C24.8365667,32 32,24.8365667 32,16 Z" id="Path" fill="#1E2026"></path>
            <g id="Group" transform="translate(7.000000, 6.000000)" fill="#F0B90B">
                <polygon id="Path" points="8.81631429 4.56777473e-15 3.40315714 3.15094286 5.39331429 4.31498571 8.81631429 2.32808571 12.2393143 4.31498571 14.2295143 3.15094286"></polygon>
                <polygon id="Path" points="12.2393143 5.96065714 14.2295143 7.12474286 14.2295143 9.45282857 10.8064286 11.4396857 10.8064286 15.4134857 8.81631429 16.5775714 6.8262 15.4134857 6.8262 11.4396857 3.40315714 9.45282857 3.40315714 7.12474286 5.39331429 5.96065714 8.81631429 7.9476"></polygon>
                <polygon id="Path" points="14.2295143 11.0985429 14.2295143 13.4266286 12.2393143 14.5906286 12.2393143 12.2625429"></polygon>
                <polygon id="Path" points="12.2195143 16.2363429 15.6425143 14.2494857 15.6425143 10.2756857 17.6326286 9.1116 17.6326286 15.4134857 12.2195143 18.5644286"></polygon>
                <polygon id="Path" points="15.6425143 6.30188571 13.6524 5.13783429 15.6425143 3.97379143 17.6326286 5.13783429 17.6326286 7.46588571 15.6425143 8.62997143"></polygon>
                <polygon id="Path" points="6.8262 19.4074286 6.8262 17.0793429 8.81631429 18.2433429 10.8064286 17.0793429 10.8064286 19.4074286 8.81631429 20.5714286"></polygon>
                <polygon id="Path" points="5.39331429 14.5906286 3.40315714 13.4266286 3.40315714 11.0985429 5.39331429 12.2625429"></polygon>
                <polygon id="Path" points="8.81631429 6.30188571 6.8262 5.13783429 8.81631429 3.97379143 10.8064286 5.13783429"></polygon>
                <polygon id="Path" points="3.98031429 5.13783429 1.99014 6.30188571 1.99014 8.62997143 9.89684525e-15 7.46588571 9.89684525e-15 5.13783429 1.99014 3.97379143"></polygon>
                <polygon id="Path" points="4.56777473e-15 9.1116 1.99014 10.2756857 1.99014 14.2494857 5.4132 16.2363429 5.4132 18.5644286 4.56777473e-15 15.4134857"></polygon>
            </g>
        </g>
    </g>
</svg>