<?xml version="1.0" encoding="UTF-8"?>
<svg width="32px" height="32px" viewBox="0 0 32 32" version="1.1" xmlns="http://www.w3.org/2000/svg" xmlns:xlink="http://www.w3.org/1999/xlink">
    <title>clover</title>
    <g id="Page-1" stroke="none" stroke-width="1" fill="none" fill-rule="evenodd">
        <g id="clover" fill-rule="nonzero">
            <circle id="Oval" fill="#FFFFFF" cx="16" cy="16" r="16"></circle>
            <path d="M21,16 C23.7642947,16 26,13.7643069 26,11 C26,8.23568267 23.7532727,6 21,6 C18.2466751,6 16.0220442,8.22467195 16,10.9669678 C15.9779558,8.22467195 13.7533249,6 11,6 C8.23568436,6 6,8.23568267 6,11 C6,13.7533327 8.22466751,15.9889736 10.9779715,16 C8.22466751,16.0110264 6,18.2467195 6,21.0000261 C6,23.7643591 8.23568436,26 11,26 C13.7642947,26 16,23.7643591 16,21.0000261 C16,18.2467195 13.7753168,16.0110264 11.0220233,16 C13.7642947,15.9889736 15.9779558,13.7753333 16,11.0330478 C16.0110221,13.7753333 18.2466751,16 21,16 Z" id="Path" fill="#06E594"></path>
            <path d="M21,26 C23.7614217,26 26,23.7613921 26,21 C26,18.2386079 23.7614217,16 21,16 C18.2385783,16 16,18.2386079 16,21 C16,23.7613921 18.2385783,26 21,26 Z" id="Path" fill="#06E594"></path>
        </g>
    </g>
</svg>