<?xml version="1.0" encoding="UTF-8"?>
<svg width="96px" height="96px" viewBox="0 0 96 96" version="1.1" xmlns="http://www.w3.org/2000/svg" xmlns:xlink="http://www.w3.org/1999/xlink">
    <!-- Generator: Sketch 63 (92445) - https://sketch.com -->
    <title>coin98</title>
    <desc>Created with Sketch.</desc>
    <defs>
        <linearGradient x1="69.264%" y1="3.73%" x2="4.739%" y2="68.255%" id="linearGradient-1">
            <stop stop-color="#F1D961" offset="0%"></stop>
            <stop stop-color="#CDA146" offset="100%"></stop>
        </linearGradient>
    </defs>
    <g id="Page-1" stroke="none" stroke-width="1" fill="none" fill-rule="evenodd">
        <g id="coin98" fill-rule="nonzero">
            <path d="M96,48 C96,21.4903 74.5097,0 48,0 C21.4903,0 0,21.4903 0,48 C0,74.5097 21.4903,96 48,96 C74.5097,96 96,74.5097 96,48 Z" id="svg_1" fill="url(#linearGradient-1)"></path>
            <path d="M33.7141978,25.0000212 C26.1367607,25.0062569 19.9979225,31.1518347 20.0000005,38.729274 C20.0020796,46.3067133 26.1442886,52.4489223 33.7217279,52.4510014 C41.2991672,52.4530794 47.4447449,46.3142412 47.4509807,38.7368041 C47.446828,31.1519092 41.2990927,25.0041739 33.7141978,25.0000212 Z M33.7256109,46.9608053 C30.394678,46.9608053 27.3917542,44.9542316 26.1171806,41.8768014 C24.842607,38.7993713 25.5474073,35.2571762 27.902915,32.9020334 C30.2584226,30.5468905 33.8007268,29.8426389 36.8779594,31.1176893 C39.955192,32.3927396 41.9613005,35.3959743 41.9607846,38.7269072 C41.9453822,43.2684659 38.2671719,46.9461065 33.7256109,46.9608053 Z M73.8039216,36.884277 C73.8081736,38.8723821 73.3208658,40.8287873 72.3880117,42.5686485 C70.9488379,41.3607133 69.3107004,40.4295992 67.5518514,39.8197845 C68.0208479,38.9167015 68.2677439,37.9087137 68.2708732,36.884277 C68.2708732,33.468602 65.5858427,30.6996503 62.2736898,30.6996503 C58.9615368,30.6996503 56.2765063,33.468602 56.2765063,36.884277 C56.2689231,37.9100749 56.5164774,38.9207499 56.9955281,39.8197845 C55.2364184,40.4298665 53.5979209,41.3609483 52.1581366,42.5686485 C50.204716,38.8874372 50.281188,34.4161516 52.3592733,30.8082682 C54.4373586,27.2003849 58.2082148,24.9921029 62.2773834,25.0000212 C68.6395262,25.0070378 73.7957511,30.3232856 73.8039216,36.884277 Z M62.285797,42.5686485 C54.705747,42.5624218 48.5557208,48.7019671 48.5490199,56.2820148 C48.5423299,63.8620625 54.6815003,70.0124629 62.2615495,70.0196286 C69.8415987,70.0267819 75.9923765,63.8879895 76,56.3079427 C75.9924296,48.7328693 69.8608459,42.5900695 62.285797,42.5686485 Z M62.2644007,64.5294326 C58.9332399,64.5252942 55.9326515,62.5147154 54.6620514,59.4353911 C53.3914513,56.3560668 54.1011171,52.8145496 56.4600744,50.462534 C58.8190318,48.1105185 62.3626231,47.4112949 65.4381863,48.6909676 C68.5137496,49.9706403 70.515473,52.9771446 70.509804,56.3083054 C70.4964158,60.8526317 66.8087433,64.5294326 62.2644007,64.5294326 Z M45.2549023,57.9411974 C45.2549023,64.6119308 40.0930088,70.0196286 33.7254906,70.0196286 C27.3579724,70.0196286 22.1960789,64.6119308 22.1960789,57.9411974 L27.7287192,57.9411974 C27.7287192,61.4108335 30.4135652,64.2235293 33.7254906,64.2235293 C37.037416,64.2235293 39.722262,61.4108335 39.722262,57.9411974 L45.2549023,57.9411974 Z" id="Shape" fill="#252525"></path>
        </g>
    </g>
</svg>