<svg width="152" height="152" viewBox="0 0 152 152" fill="none" xmlns="http://www.w3.org/2000/svg">
<path fill-rule="evenodd" clip-rule="evenodd" d="M77.113 86.1383C78.6991 86.1085 79.9989 87.3667 80.0347 88.9468L80.9291 137.847C80.959 139.237 79.993 140.435 78.6335 140.71L58.9325 144.669C58.4256 144.77 57.895 144.729 57.406 144.556C55.9153 144.025 55.1402 142.391 55.6708 140.9L74.4715 88.0404C74.871 86.9194 75.9264 86.1562 77.113 86.1324V86.1383ZM87.3093 88.4877C88.472 87.4144 90.2907 87.4919 91.358 88.6546L122.245 122.243C122.615 122.642 122.859 123.137 122.961 123.662C123.241 125.218 122.209 126.709 120.659 127.001L90.4875 132.541C90.3384 132.57 90.1893 132.582 90.0283 132.588C88.4482 132.618 87.1423 131.36 87.1125 129.774L86.3851 90.6462C86.3732 89.8293 86.7071 89.0422 87.3093 88.4877ZM70.0292 82.5607C70.1723 83.1152 70.1485 83.6936 69.9576 84.2362L55.0626 126.304C54.5379 127.794 52.8982 128.569 51.4075 128.045C51.0199 127.908 50.6621 127.687 50.3699 127.401L19.4232 97.3006C18.2902 96.1975 18.2664 94.3789 19.3635 93.2459C19.7332 92.8763 20.1924 92.6079 20.6932 92.4708L66.535 80.5095C68.0615 80.11 69.6297 81.0282 70.0292 82.5607ZM96.8438 75.9956L143.771 85.6613C145.244 85.9654 146.233 87.3607 146.025 88.8573L141.022 125.23C140.807 126.792 139.364 127.89 137.796 127.675C137.134 127.586 136.52 127.258 136.067 126.769L94.1486 80.7241C93.0813 79.5554 93.1647 77.7427 94.3394 76.6814C95.0132 76.0612 95.9494 75.8108 96.8438 75.9956ZM3.60392 44.6911C4.17039 43.2064 5.82207 42.467 7.30084 43.0334L71.6749 67.6478C72.5395 67.9757 73.1895 68.7091 73.422 69.6036C73.8215 71.13 72.8973 72.6982 71.3708 73.0918L3.58603 90.7058C3.27597 90.7893 2.95398 90.8131 2.63199 90.7893C1.05782 90.6641 -0.110884 89.2807 0.00837135 87.7065L3.42504 45.4782C3.44293 45.2099 3.50852 44.9415 3.60392 44.6851V44.6911ZM127.856 22.9091C128.381 23.3265 128.745 23.9228 128.87 24.5787L138.589 73.1454C138.905 74.6958 137.897 76.2043 136.347 76.5144C135.971 76.5919 135.584 76.5919 135.214 76.5144L93.4629 67.9459C91.9126 67.6239 90.9168 66.1094 91.2328 64.565C91.3282 64.1178 91.519 63.7004 91.8052 63.3486L123.831 23.3563C124.821 22.122 126.622 21.9252 127.856 22.9091ZM80.154 14.5374C80.4044 14.9726 80.5416 15.4676 80.5416 15.9684V60.1764C80.5416 61.7565 79.2596 63.0385 77.6794 63.0385C77.3217 63.0385 76.9818 62.9789 76.6538 62.8477L30.812 45.2814C29.3333 44.7149 28.5999 43.0573 29.1604 41.5845C29.3989 40.9703 29.8342 40.4635 30.4006 40.1296L76.2364 13.4998C77.6079 12.7008 79.355 13.1659 80.154 14.5374ZM86.4149 1.90225C86.9396 0.411553 88.5794 -0.363607 90.0701 0.167079L120.647 11.0372C120.945 11.1445 121.232 11.3055 121.482 11.5023C122.716 12.4921 122.913 14.2929 121.923 15.5272L91.3401 53.6889C90.8035 54.3687 89.9806 54.7622 89.1101 54.7622C87.5299 54.7622 86.2479 53.4802 86.2479 51.9001V2.86225C86.2479 2.5343 86.3016 2.21231 86.4089 1.90821L86.4149 1.90225Z" fill="#1DE9B6"/>
</svg>
