<?xml version="1.0" encoding="UTF-8"?>
<svg width="32px" height="33px" viewBox="0 0 32 33" version="1.1" xmlns="http://www.w3.org/2000/svg" xmlns:xlink="http://www.w3.org/1999/xlink">
    <title>martian</title>
    <g id="Page-1" stroke="none" stroke-width="1" fill="none" fill-rule="evenodd">
        <g id="martian" transform="translate(0.000000, 0.012367)">
            <circle id="Oval" fill="#000000" fill-rule="nonzero" cx="16" cy="16" r="16"></circle>
            <path d="M18.6421411,5.06106654 C18.6287704,5.07716051 18.5431983,5.21079867 18.4522778,5.35802007 C17.873233,6.29457227 17.0698477,7.42447844 16.2218618,8.49485656 C16.0369648,8.72831772 16.0074538,8.76172526 15.9854877,8.76228873 C15.9732631,8.7625848 15.560683,8.24096695 15.2575512,7.8419389 C14.5975948,6.97312338 14.041643,6.17439874 13.5765449,5.42683023 C13.3935961,5.1327704 13.3619936,5.09034359 13.3258833,5.09034359 C13.2318685,5.09034359 11.5470516,6.60144787 10.5063276,7.61917426 C10.3515146,7.77057781 10.3512758,7.76962276 10.5714045,7.90931744 C11.7312705,8.64544832 14.3362272,10.7138311 14.2553729,10.8344344 C14.0935976,11.0757556 11.3879121,13.9029612 11.0638266,14.1693046 L11.0192068,14.205988 L10.9855032,14.1628103 C10.9669467,14.1390678 10.8185992,13.9513152 10.6558115,13.7456173 C9.73762966,12.5853119 8.88031291,11.3645617 8.30181249,10.3936899 C8.13889107,10.1202887 8.13263552,10.1126006 8.0913966,10.135665 C7.95881702,10.2098052 5.59000261,13.0391119 5.53926117,13.1839161 C5.52766853,13.2170276 5.54829209,13.2368639 5.69990814,13.3384045 C6.42759927,13.8257361 7.28381868,14.4676707 8.06111207,15.1087267 C8.52892259,15.4945656 9.07039585,15.9623475 9.07016664,15.9805888 C9.0683043,16.1143909 6.71650185,17.968232 5.68389678,18.6498488 C5.52172843,18.7569095 5.50044893,18.775724 5.5000003,18.8124933 C5.49899186,18.8980654 8.01181256,21.8953839 8.08448206,21.8953839 C8.11374469,21.8953839 8.13707648,21.8624348 8.28601601,21.6110665 C8.86091591,20.6403571 9.72693314,19.4089199 10.7331703,18.1312585 C10.8672302,17.9609736 10.9907942,17.8116043 11.0077367,17.7991887 C11.0421375,17.774071 11.1255226,17.8524803 11.9603289,18.6938765 C12.6720488,19.411212 14.2088813,21.0530328 14.2647897,21.1557958 C14.2830884,21.1895089 14.249996,21.2212165 13.7508218,21.6474538 C12.5745958,22.6521629 11.4733028,23.4885928 10.5114658,24.1074631 C10.2863517,24.2524392 10.2832478,24.2331472 10.5787011,24.525296 C11.3937475,25.3314509 13.1130511,26.8969634 13.2636907,26.9702155 C13.309829,26.9926591 13.282868,27.0282823 13.5628113,26.5738711 C14.0833308,25.7289413 14.8209898,24.6875584 15.6462552,23.6329004 C15.8164445,23.4153407 15.9658138,23.2332133 15.9780384,23.2283426 C16.0692453,23.1917643 17.5585451,25.2119745 18.2884873,26.3623283 C18.4490307,26.6153201 18.5918101,26.8392786 18.6056583,26.8600031 C18.6621016,26.9441427 18.936009,26.7211393 20.2226478,25.5429937 C21.6114767,24.2713491 21.6518752,24.2249338 21.4704163,24.107081 C20.9504889,23.7698541 20.1099523,23.1651185 19.5501995,22.7258925 C18.7178763,22.0727361 17.7248188,21.2287614 17.7248188,21.1747057 C17.7248188,21.08751 19.5592724,19.1395012 20.6269191,18.0928656 C20.8052263,17.9179965 20.951253,17.7692003 20.951253,17.7622284 C20.951253,17.7366332 20.1919908,16.8264737 19.713799,16.2786589 L19.4610936,15.9892798 L19.6977542,15.717569 C20.0250487,15.3419491 20.3696295,14.9350992 20.6786826,14.5594221 C20.9967132,14.1727905 20.9214555,14.1775753 21.2818901,14.5210579 C21.6804311,14.9009086 22.1838362,15.3651568 22.5563044,15.6966535 C22.9147334,16.015448 22.9082391,15.9691283 22.6291745,16.2156258 C22.1333142,16.6538968 20.9672022,17.7397848 20.9672022,17.7633745 C20.9672022,17.7686272 21.033005,17.8553455 21.1136109,17.9561984 C22.1623477,19.2699606 23.0613331,20.5376896 23.6748551,21.5678029 C23.8746508,21.9031198 23.8592746,21.8942379 23.9904025,21.7510764 C24.7972259,20.8699503 26.4587206,18.8713241 26.4591027,18.7814542 C26.4591982,18.7640724 26.362834,18.6895788 26.19933,18.5806079 C25.2286205,17.9334683 22.9207502,16.1079921 22.9207502,15.9872742 C22.9207502,15.9204209 24.3531292,14.7386461 25.208278,14.1001019 C25.5327074,13.857797 26.3029525,13.3171833 26.4305468,13.2422313 C26.5419052,13.1767628 26.5507871,13.1963604 26.2183354,12.7749174 C25.5828473,11.9693355 24.5478632,10.7462263 24.0071158,10.1617473 C23.8902181,10.0355092 23.9094145,10.0204386 23.6574732,10.4367243 C23.0555073,11.4314818 22.3060822,12.5015352 21.4143551,13.6392728 C21.0790382,14.0671528 20.9667247,14.2023874 20.9513485,14.1964948 C20.8458158,14.1559149 17.7439197,10.915833 17.7043808,10.8049426 C17.6959763,10.7814866 18.598591,10.0109168 19.1978828,9.52991705 C20.0158802,8.87332246 20.7145924,8.36443539 21.5193147,7.83900691 C21.6008757,7.78572485 21.6396506,7.75001566 21.6396506,7.72838385 C21.6396506,7.65077676 19.908724,6.05693755 18.905543,5.21084928 C18.6752812,5.01666559 18.6778598,5.01812105 18.6421411,5.06106654 Z M16.1729634,9.00930201 C16.5277632,9.4490055 17.3119521,10.3748278 17.5674271,10.6555733 C17.7014201,10.8027078 17.7146953,10.7761479 17.3364968,11.1156002 C16.8226817,11.5767731 16.0187234,12.3291016 16.0068808,12.3597108 C16.0021056,12.3721646 16.0193919,12.3897661 16.5156342,12.8790748 C17.5059221,13.8555622 19.4460994,15.9138311 19.4460994,15.9878472 C19.4460994,16.035313 18.0647199,17.5287195 17.2847332,18.3245599 C16.8742542,18.7433479 16.1328514,19.4794024 16.0239761,19.5762441 L15.9887349,19.6074741 L15.6408114,19.2667135 C14.7248834,18.3694471 13.7101272,17.3091543 12.8515307,16.352293 L12.5256115,15.9890888 L12.7154366,15.7766864 C13.6701012,14.7080846 14.8038276,13.5226425 15.7593327,12.5938787 C15.8760394,12.4804669 15.9715441,12.3784011 15.9715441,12.3670647 C15.9715441,12.3346026 15.3905892,11.7835312 14.6713435,11.1337365 C14.4802387,10.9610927 14.319447,10.8123251 14.3140223,10.8031566 C14.3085977,10.7939786 14.4114849,10.6642164 14.5426701,10.5147994 C14.8914245,10.1175764 15.2931744,9.64357716 15.6555191,9.20170571 C16.0302794,8.74485913 15.9759373,8.76506792 16.1729634,9.00930201 Z M11.2842418,14.531296 C11.6242384,14.9436947 11.9643114,15.3455783 12.2605765,15.6851929 C12.5611583,16.0297737 12.5542151,15.9530835 12.3102771,16.2335807 C11.9781405,16.6154084 11.6261199,17.0309492 11.3224723,17.3995017 C10.9824948,17.8121774 11.0650108,17.8006213 10.7318524,17.4825908 C10.3205806,17.0899711 9.89033208,16.6924806 9.4907119,16.3358662 C9.05848642,15.9501229 9.05578364,16.0309198 9.51473132,15.6196767 C9.93134178,15.246349 10.4827571,14.7354945 10.8076831,14.4217999 C10.9221741,14.3112819 11.0213652,14.2241625 11.0281078,14.2281832 C11.0348696,14.232204 11.1501342,14.3686133 11.2842418,14.531296 Z M16.2138394,19.8237922 C16.5366452,20.1309352 17.0492187,20.6047339 17.3765132,20.8986972 C17.719375,21.2066043 17.7049538,21.16038 17.5228264,21.3687712 C17.1997341,21.7383743 16.6164871,22.4263899 16.3319787,22.7738359 C16.1661826,22.9761148 16.021302,23.1475456 16.0101279,23.1545175 C15.9809035,23.1728544 15.9462353,23.1356076 15.6172217,22.7319093 C15.2998597,22.3427278 14.7958434,21.7483068 14.4931318,21.4064 C14.3889458,21.2887383 14.3060859,21.1854977 14.3089988,21.1771888 C14.3118926,21.1685934 14.4583872,21.0324993 14.6345074,20.874439 C15.0023054,20.5444704 15.5080599,20.0761155 15.7874111,19.8071744 C16.0190099,19.58398 15.9593195,19.5816879 16.2138394,19.8237922 Z" id="Shape" fill="#FFFFFF"></path>
        </g>
    </g>
</svg>