<svg width="96.000000" height="96.000000" viewBox="0 0 96 96" fill="none" xmlns="http://www.w3.org/2000/svg" xmlns:xlink="http://www.w3.org/1999/xlink">
	<desc>
			Created with Pixso.
	</desc>
	<g clip-path="url(#clip2_1)">
		<circle id="circle" cx="48.000000" cy="48.000000" r="48.000000" fill="#FFFFFF"/>
		<path id="path" d="M26.25 31.7824L36.824 21.2085C36.9788 21.0537 37.1472 20.9154 37.3293 20.7938C37.5113 20.6722 37.7035 20.5694 37.9058 20.4857C38.108 20.4019 38.3165 20.3386 38.5312 20.2959C38.746 20.2532 38.9628 20.2318 39.1818 20.2318C39.4008 20.2318 39.6176 20.2532 39.8323 20.2959C40.0471 20.3386 40.2556 20.4019 40.4578 20.4857C40.6601 20.5694 40.8523 20.6722 41.0343 20.7938C41.2164 20.9154 41.3848 21.0537 41.5396 21.2085C41.6944 21.3633 41.8326 21.5317 41.9543 21.7138C42.0759 21.8958 42.1786 22.088 42.2625 22.2903C42.3462 22.4925 42.4095 22.701 42.4521 22.9158C42.4949 23.1305 42.5162 23.3474 42.5162 23.5663C42.5162 23.7852 42.4949 24.0021 42.4521 24.2168C42.4095 24.4315 42.3462 24.64 42.2625 24.8423C42.1786 25.0446 42.0759 25.2368 41.9543 25.4188C41.8326 25.6009 41.6944 25.7693 41.5396 25.9241L30.9656 36.498C30.8405 36.6233 30.696 36.7198 30.5323 36.7876C30.3688 36.8553 30.1984 36.8892 30.0213 36.8892C29.8442 36.8892 29.6738 36.8553 29.5102 36.7876C29.3466 36.7198 29.2021 36.6233 29.0769 36.498L26.2437 33.6649C26.1185 33.5397 26.022 33.3952 25.9542 33.2316C25.8864 33.068 25.8526 32.8976 25.8526 32.7205C25.8526 32.5434 25.8864 32.373 25.9542 32.2094C26.022 32.0458 26.1248 31.9077 26.25 31.7824Z" fill-rule="nonzero" fill="url(#paint_linear_2_15_0)"/>
		<path id="path" d="M35.0258 42.8262L57.8841 19.9679C58.0375 19.8145 58.2045 19.6775 58.3849 19.557C58.5653 19.4364 58.7557 19.3346 58.9562 19.2516C59.1567 19.1685 59.3633 19.1058 59.5762 19.0635C59.789 19.0212 60.0039 19 60.2209 19C60.4379 19 60.6528 19.0212 60.8656 19.0635C61.0784 19.1058 61.2851 19.1685 61.4856 19.2516C61.686 19.3346 61.8765 19.4364 62.0569 19.557C62.2374 19.6775 62.4043 19.8145 62.5577 19.9679C62.7109 20.1214 62.8477 20.2884 62.9681 20.4688C63.0884 20.6492 63.19 20.8396 63.2728 21.0401C63.3557 21.2405 63.4182 21.447 63.4604 21.6598C63.5026 21.8725 63.5237 22.0873 63.5236 22.3042C63.5235 22.521 63.5023 22.7358 63.4598 22.9485C63.4175 23.1612 63.3547 23.3677 63.2717 23.568C63.1887 23.7684 63.0869 23.9587 62.9664 24.139C62.8459 24.3193 62.709 24.4861 62.5556 24.6395L39.6973 47.4978C39.575 47.6201 39.434 47.7143 39.2742 47.7805C39.1144 47.8467 38.948 47.8798 38.775 47.8798C38.6021 47.8798 38.4356 47.8467 38.2758 47.7805C38.116 47.7143 37.975 47.6201 37.8527 47.4978L35.0195 44.6646C34.8972 44.5423 34.8029 44.4012 34.7368 44.2414C34.6705 44.0816 34.6375 43.9152 34.6375 43.7423C34.6375 43.5693 34.6705 43.4029 34.7368 43.2431C34.8029 43.0833 34.9035 42.9485 35.0258 42.8262Z" fill-rule="nonzero" fill="url(#paint_linear_2_17_0)"/>
		<path id="path" d="M47.7884 50.246L73.6886 24.3458C73.842 24.1923 74.009 24.0553 74.1894 23.9348C74.3699 23.8142 74.5603 23.7124 74.7607 23.6294C74.9612 23.5464 75.1679 23.4837 75.3807 23.4413C75.5936 23.399 75.8085 23.3778 76.0255 23.3778C76.2424 23.3778 76.4573 23.399 76.6702 23.4413C76.883 23.4837 77.0897 23.5464 77.2901 23.6294C77.4906 23.7124 77.681 23.8142 77.8615 23.9348C78.0419 24.0553 78.2089 24.1924 78.3623 24.3458C78.5157 24.4992 78.6527 24.6662 78.7733 24.8466C78.8938 25.027 78.9956 25.2175 79.0787 25.4179C79.1617 25.6184 79.2244 25.8251 79.2667 26.0379C79.309 26.2507 79.3302 26.4656 79.3302 26.6826C79.3302 26.8996 79.309 27.1145 79.2667 27.3273C79.2244 27.5402 79.1617 27.7468 79.0787 27.9473C78.9956 28.1478 78.8938 28.3382 78.7733 28.5186C78.6527 28.6991 78.5157 28.866 78.3623 29.0194L52.462 54.9197C52.3397 55.042 52.1987 55.1362 52.0389 55.2024C51.879 55.2686 51.7126 55.3017 51.5397 55.3017C51.3667 55.3017 51.2003 55.2686 51.0405 55.2024C50.8807 55.1362 50.7396 55.042 50.6174 54.9197L47.7863 52.0886C47.664 51.9663 47.5697 51.8252 47.5035 51.6654C47.4373 51.5056 47.4042 51.3392 47.4042 51.1663C47.4042 50.9933 47.4373 50.8269 47.5035 50.6671C47.5697 50.5073 47.6661 50.3683 47.7884 50.246Z" fill-rule="nonzero" fill="url(#paint_linear_2_19_0)"/>
		<path id="path" d="M60.5526 56.4806L74.3585 42.6748C74.5118 42.5214 74.6788 42.3844 74.8593 42.2638C75.0397 42.1433 75.2301 42.0415 75.4306 41.9584C75.631 41.8754 75.8377 41.8127 76.0505 41.7704C76.2634 41.728 76.4783 41.7069 76.6953 41.7069C76.9122 41.7069 77.1271 41.728 77.34 41.7704C77.5528 41.8127 77.7595 41.8754 77.96 41.9584C78.1604 42.0415 78.3508 42.1433 78.5313 42.2638C78.7117 42.3844 78.8787 42.5214 79.0321 42.6748C79.1855 42.8282 79.3225 42.9952 79.4431 43.1756C79.5636 43.356 79.6654 43.5465 79.7485 43.7469C79.8315 43.9474 79.8942 44.1541 79.9365 44.3669C79.9789 44.5797 80 44.7946 80 45.0116C80 45.2286 79.9789 45.4435 79.9365 45.6564C79.8942 45.8692 79.8315 46.0758 79.7485 46.2763C79.6654 46.4768 79.5636 46.6672 79.4431 46.8477C79.3225 47.0281 79.1855 47.195 79.0321 47.3484L65.2263 61.1543C65.1039 61.2766 64.9629 61.3708 64.803 61.437C64.6432 61.5032 64.4769 61.5363 64.3039 61.5363C64.1309 61.5363 63.9645 61.5032 63.8047 61.437C63.6449 61.3708 63.5038 61.2766 63.3815 61.1543L60.5484 58.3211C60.427 58.1986 60.3336 58.0576 60.2681 57.8981C60.2027 57.7385 60.1702 57.5725 60.1705 57.4C60.171 57.2276 60.2042 57.0617 60.2704 56.9025C60.3366 56.7432 60.4307 56.6026 60.5526 56.4806Z" fill-rule="nonzero" fill="url(#paint_linear_2_21_0)"/>
		<path id="path" d="M23.2091 43.8748L43.7914 23.2925C43.9706 23.1134 44.1655 22.9534 44.3761 22.8127C44.5867 22.6719 44.8091 22.5531 45.0432 22.4561C45.2772 22.3592 45.5184 22.286 45.7669 22.2366C46.0154 22.1872 46.2663 22.1624 46.5197 22.1624C46.7729 22.1624 47.0239 22.1872 47.2723 22.2366C47.5208 22.286 47.7621 22.3592 47.9962 22.4561C48.2302 22.5531 48.4525 22.6719 48.6632 22.8127C48.8738 22.9534 49.0687 23.1134 49.2479 23.2925C49.427 23.4716 49.5869 23.6665 49.7277 23.8772C49.8684 24.0878 49.9872 24.3102 50.0842 24.5442C50.1812 24.7783 50.2543 25.0195 50.3038 25.268C50.3532 25.5165 50.3779 25.7674 50.3779 26.0207C50.3779 26.2741 50.3532 26.525 50.3038 26.7734C50.2543 27.0219 50.1812 27.2632 50.0842 27.4972C49.9872 27.7313 49.8684 27.9536 49.7277 28.1643C49.5869 28.3749 49.427 28.5698 49.2479 28.7489L28.6655 49.3313C28.491 49.5058 28.2898 49.6402 28.0618 49.7346C27.8339 49.8291 27.5964 49.8763 27.3497 49.8763C27.1029 49.8763 26.8655 49.8291 26.6376 49.7346C26.4096 49.6402 26.2083 49.5058 26.0338 49.3313L23.2007 46.4981C23.0262 46.3236 22.8918 46.1224 22.7973 45.8944C22.7029 45.6664 22.6557 45.429 22.6557 45.1823C22.6557 44.9355 22.7029 44.6981 22.7973 44.4702C22.8918 44.2422 23.0346 44.0493 23.2091 43.8748Z" fill-rule="nonzero" fill="url(#paint_linear_2_24_0)"/>
		<path id="path" d="M33.7576 53.2639L62.832 24.1895C63.0152 24.0063 63.2145 23.8427 63.4299 23.6988C63.6453 23.5548 63.8727 23.4333 64.1121 23.3341C64.3514 23.235 64.5982 23.1601 64.8523 23.1096C65.1064 23.059 65.363 23.0338 65.6221 23.0338C65.8812 23.0338 66.1378 23.059 66.3919 23.1096C66.646 23.1601 66.8928 23.235 67.1321 23.3341C67.3715 23.4333 67.5989 23.5548 67.8143 23.6988C68.0297 23.8427 68.229 24.0063 68.4122 24.1895C68.5956 24.3727 68.7592 24.572 68.9033 24.7874C69.0474 25.0028 69.1689 25.2302 69.2682 25.4696C69.3674 25.709 69.4424 25.9558 69.493 26.2099C69.5436 26.4641 69.569 26.7208 69.569 26.9799C69.569 27.2391 69.5438 27.4957 69.4933 27.7499C69.4427 28.0041 69.3679 28.2509 69.2688 28.4903C69.1696 28.7298 69.0481 28.9572 68.9041 29.1727C68.7601 29.3882 68.5966 29.5875 68.4133 29.7708L39.3389 58.8452C39.1564 59.0276 38.946 59.1682 38.7077 59.2669C38.4694 59.3656 38.2212 59.415 37.9632 59.415C37.7052 59.415 37.4571 59.3656 37.2187 59.2669C36.9803 59.1682 36.77 59.0276 36.5876 58.8452L33.7544 56.0121C33.5727 55.8295 33.4327 55.6191 33.3345 55.381C33.2364 55.1428 33.1874 54.8949 33.1877 54.6373C33.188 54.3797 33.2375 54.132 33.3362 53.894C33.435 53.6561 33.5754 53.446 33.7576 53.2639Z" fill-rule="nonzero" fill="url(#paint_linear_2_26_0)"/>
		<rect id="rect" x="44.755554" y="62.413605" rx="3.567428" width="28.520138" height="7.134855" transform="rotate(-45 44.755554 62.413605)" fill="url(#paint_linear_2_28_0)"/>
		<path id="path" d="M64.7047 33.2473L55.0886 42.8574C54.913 43.0325 54.7221 43.1888 54.5158 43.3264C54.3095 43.4639 54.0918 43.5801 53.8627 43.6748C53.6335 43.7695 53.3974 43.841 53.1542 43.8893C52.911 43.9376 52.6654 43.9618 52.4175 43.9618C52.1696 43.9618 51.924 43.9376 51.6808 43.8893C51.4376 43.841 51.2014 43.7695 50.9723 43.6748C50.7432 43.5801 50.5255 43.4639 50.3192 43.3264C50.1129 43.1888 49.9219 43.0325 49.7463 42.8574C49.5713 42.6819 49.415 42.491 49.2774 42.2847C49.1399 42.0784 49.0237 41.8606 48.929 41.6315C48.8343 41.4024 48.7628 41.1662 48.7145 40.923C48.6662 40.6798 48.642 40.4342 48.642 40.1863C48.642 39.9384 48.6662 39.6928 48.7145 39.4496C48.7628 39.2064 48.8343 38.9702 48.929 38.7411C49.0237 38.512 49.1399 38.2943 49.2774 38.088C49.415 37.8817 49.5713 37.6908 49.7463 37.5152L51.7853 35.4748C53.0749 34.1867 53.1713 32.0735 51.907 30.7617C51.7544 30.6034 51.5877 30.4617 51.4069 30.3365C51.226 30.2114 51.0346 30.1054 50.8326 30.0185C50.6306 29.9315 50.4221 29.8654 50.2069 29.82C49.9917 29.7746 49.7742 29.7509 49.5543 29.7489C49.3344 29.7469 49.1165 29.7667 48.9005 29.8081C48.6846 29.8495 48.4749 29.9119 48.2713 29.9951C48.0677 30.0784 47.8745 30.1809 47.6913 30.3027C47.5083 30.4245 47.339 30.5631 47.1836 30.7187L38.1508 39.7411C37.9753 39.9165 37.7845 40.073 37.5782 40.2108C37.372 40.3486 37.1543 40.4649 36.9252 40.5598C36.696 40.6547 36.4598 40.7263 36.2166 40.7747C35.9733 40.8231 35.7277 40.8473 35.4796 40.8473C35.2316 40.8473 34.986 40.8231 34.7427 40.7747C34.4994 40.7263 34.2632 40.6547 34.0341 40.5598C33.8049 40.4649 33.5872 40.3486 33.381 40.2108C33.1747 40.073 32.9839 39.9165 32.8085 39.7411C32.6329 39.5655 32.476 39.3744 32.338 39.1679C32.2 38.9614 32.0835 38.7434 31.9884 38.5139C31.8934 38.2844 31.8216 38.0479 31.7731 37.8043C31.7247 37.5607 31.7004 37.3147 31.7004 37.0663C31.7004 36.8179 31.7247 36.5719 31.7731 36.3283C31.8216 36.0847 31.8934 35.8481 31.9884 35.6187C32.0835 35.3892 32.2 35.1712 32.338 34.9647C32.476 34.7582 32.6329 34.5671 32.8085 34.3915L35.815 31.3835C35.9706 31.228 36.1093 31.0588 36.2311 30.8756C36.3528 30.6925 36.4554 30.4992 36.5386 30.2956C36.6219 30.0921 36.6842 29.8823 36.7256 29.6663C36.767 29.4503 36.7867 29.2323 36.7846 29.0124C36.7825 28.7925 36.7588 28.575 36.7133 28.3598C36.6678 28.1446 36.6016 27.936 36.5145 27.7341C36.4274 27.5321 36.3213 27.3407 36.196 27.16C36.0708 26.9792 35.929 26.8125 35.7704 26.66C34.4586 25.3957 32.3455 25.4937 31.0574 26.7817L22.8957 34.9435C22.8586 34.9806 22.8259 35.0207 22.7903 35.0607C22.2455 35.6262 21.7295 36.2168 21.242 36.8323C20.7546 37.4479 20.2981 38.0856 19.8726 38.7455C19.4471 39.4054 19.0545 40.0844 18.6949 40.7824C18.3352 41.4804 18.0103 42.1942 17.7199 42.9237C17.4296 43.6532 17.1753 44.3951 16.9569 45.1494C16.7386 45.9036 16.5573 46.6666 16.4131 47.4385C16.2688 48.2103 16.1623 48.9873 16.0934 49.7695C16.0246 50.5517 15.9938 51.3353 16.001 52.1205C16.0083 52.9056 16.0535 53.6886 16.1367 54.4694C16.22 55.2502 16.3408 56.0251 16.4993 56.7941C16.6577 57.5631 16.8531 58.3227 17.0853 59.0728C17.3174 59.8229 17.5854 60.5599 17.8891 61.284C18.1929 62.0081 18.5309 62.7157 18.9034 63.407C19.2758 64.0983 19.6808 64.7698 20.1185 65.4218C20.5561 66.0737 21.0242 66.7029 21.5229 67.3094C22.0216 67.9159 22.5485 68.4968 23.1036 69.0522C23.6587 69.6075 24.2393 70.1347 24.8456 70.6337C25.4519 71.1327 26.0809 71.6011 26.7326 72.0391C27.3843 72.477 28.0557 72.8823 28.7468 73.2551C29.4379 73.6278 30.1454 73.9662 30.8693 74.2703C31.5932 74.5744 32.3302 74.8427 33.0801 75.0753C33.8301 75.3078 34.5896 75.5035 35.3585 75.6623C36.1275 75.8212 36.9023 75.9424 37.6831 76.026C38.4638 76.1096 39.2468 76.1552 40.0319 76.1628C40.8171 76.1704 41.6008 76.14 42.383 76.0715C43.1652 76.0031 43.9423 75.8969 44.7141 75.753C45.486 75.6091 46.2491 75.4282 47.0035 75.2102C47.7578 74.9923 48.4998 74.7383 49.2295 74.4483C49.9592 74.1583 50.6731 73.8337 51.3713 73.4744C52.0695 73.1151 52.7486 72.7228 53.4087 72.2976C54.0688 71.8724 54.7067 71.4162 55.3226 70.9291C55.9384 70.442 56.5292 69.9261 57.0949 69.3817L57.0652 69.352C57.1038 69.3164 57.1439 69.2837 57.181 69.2466L71.5887 54.8389C72.8782 53.5508 72.9747 51.4377 71.7104 50.1258C71.5579 49.9675 71.3912 49.8257 71.2104 49.7005C71.0295 49.5754 70.8382 49.4693 70.6362 49.3823C70.4343 49.2952 70.2257 49.229 70.0106 49.1836C69.7954 49.1382 69.5779 49.1144 69.358 49.1123C69.1381 49.1103 68.9202 49.1299 68.7042 49.1713C68.4882 49.2126 68.2785 49.2749 68.075 49.3581C67.8714 49.4413 67.678 49.5438 67.4949 49.6655C67.3118 49.7872 67.1425 49.9258 66.9869 50.0813C66.9869 50.0813 69.6848 47.388 65.5312 51.5445C65.371 51.7049 65.1968 51.8481 65.0084 51.9741C64.82 52.1001 64.6211 52.2066 64.4117 52.2934C64.2024 52.3802 63.9866 52.4457 63.7643 52.49C63.542 52.5342 63.3175 52.5564 63.0908 52.5564C62.8642 52.5564 62.6397 52.5342 62.4174 52.49C62.1951 52.4457 61.9792 52.3802 61.7699 52.2934C61.5605 52.2066 61.3617 52.1001 61.1733 51.9741C60.9849 51.8481 60.8106 51.7049 60.6505 51.5445C60.4901 51.3843 60.3468 51.21 60.2208 51.0215C60.0947 50.8331 59.9883 50.6341 59.9015 50.4247C59.8147 50.2152 59.7491 49.9994 59.7049 49.777C59.6606 49.5547 59.6385 49.3301 59.6385 49.1034C59.6385 48.8767 59.6606 48.6521 59.7049 48.4298C59.7491 48.2074 59.8147 47.9915 59.9015 47.7821C59.9883 47.5727 60.0947 47.3737 60.2208 47.1853C60.3468 46.9968 60.4901 46.8225 60.6505 46.6623L69.4622 37.8491C69.6178 37.6936 69.7565 37.5244 69.8783 37.3412C70.0001 37.1581 70.1026 36.9648 70.1859 36.7612C70.2691 36.5577 70.3314 36.3479 70.3728 36.1319C70.4142 35.9159 70.4339 35.6979 70.4318 35.478C70.4297 35.2581 70.406 35.0406 70.3605 34.8254C70.3151 34.6102 70.2488 34.4016 70.1617 34.1997C70.0746 33.9977 69.9685 33.8063 69.8433 33.6256C69.718 33.4448 69.5762 33.2781 69.4177 33.1257C68.1058 31.8613 65.9942 31.9593 64.7047 33.2473Z" fill-rule="nonzero" fill="url(#paint_linear_2_29_0)"/>
		<rect id="rect" x="23.443268" y="35.732742" rx="1.891301" width="7.563721" height="3.782603" transform="rotate(-45 23.443268 35.732742)" fill="#A4A1EF"/>
		<circle id="circle" cx="32.804016" cy="29.046265" r="1.890560" fill="#C2BFFC"/>
		<rect id="rect" x="44.837219" y="34.395065" rx="1.891301" width="5.673161" height="3.782603" transform="rotate(-45 44.837219 34.395065)" fill="#786BEE"/>
	</g>
	<defs>
		<clipPath id="clip2_1">
			<rect id="meteor" width="96.000000" height="96.000000" fill="white"/>
		</clipPath>
		<linearGradient id="paint_linear_2_15_0" x1="24.704979" y1="27.705276" x2="44.281624" y2="27.705276" gradientUnits="userSpaceOnUse">
			<stop offset="0.070000" stop-color="#232371" stop-opacity="0.800000"/>
			<stop offset="0.940000" stop-color="#171E9B" stop-opacity="0.749020"/>
		</linearGradient>
		<linearGradient id="paint_linear_2_17_0" x1="27.292660" y1="34.832886" x2="41.135445" y2="20.990103" gradientUnits="userSpaceOnUse">
			<stop offset="0.070000" stop-color="#232371" stop-opacity="0.800000"/>
			<stop offset="0.940000" stop-color="#171E9B" stop-opacity="0.749020"/>
		</linearGradient>
		<linearGradient id="paint_linear_2_19_0" x1="42.876354" y1="39.591675" x2="84.012123" y2="39.591675" gradientUnits="userSpaceOnUse">
			<stop offset="0.070000" stop-color="#232371" stop-opacity="0.800000"/>
			<stop offset="0.940000" stop-color="#171E9B" stop-opacity="0.807843"/>
		</linearGradient>
		<linearGradient id="paint_linear_2_21_0" x1="28.203766" y1="46.796928" x2="42.046547" y2="32.954140" gradientUnits="userSpaceOnUse">
			<stop offset="0.070000" stop-color="#232371" stop-opacity="0.800000"/>
			<stop offset="0.940000" stop-color="#171E9B" stop-opacity="0.749020"/>
		</linearGradient>
		<linearGradient id="paint_linear_2_24_0" x1="19.694773" y1="35.608330" x2="54.635384" y2="35.608330" gradientUnits="userSpaceOnUse">
			<stop offset="0.070000" stop-color="#0F0F36"/>
			<stop offset="0.760000" stop-color="#232371"/>
		</linearGradient>
		<linearGradient id="paint_linear_2_26_0" x1="28.176968" y1="40.809582" x2="75.125870" y2="40.809582" gradientUnits="userSpaceOnUse">
			<stop stop-color="#0F0F36"/>
			<stop offset="0.800000" stop-color="#232371"/>
		</linearGradient>
		<linearGradient id="paint_linear_2_28_0" x1="35.094284" y1="57.509491" x2="68.292175" y2="24.311600" gradientUnits="userSpaceOnUse">
			<stop stop-color="#0F0F36"/>
			<stop offset="0.800000" stop-color="#232371"/>
		</linearGradient>
		<linearGradient id="paint_linear_2_29_0" x1="22.773922" y1="69.382233" x2="64.223969" y2="27.932186" gradientUnits="userSpaceOnUse">
			<stop stop-color="#479FF5"/>
			<stop offset="0.220000" stop-color="#405EE5"/>
			<stop offset="0.350000" stop-color="#523BDA"/>
			<stop offset="0.430000" stop-color="#5A55CE"/>
			<stop offset="0.560000" stop-color="#5A55CE"/>
			<stop offset="0.760000" stop-color="#3B3CBB"/>
			<stop offset="0.870000" stop-color="#171E9B"/>
			<stop offset="1.000000" stop-color="#171E9B"/>
		</linearGradient>
	</defs>
</svg>
