<?xml version="1.0" encoding="UTF-8"?>
<svg width="32px" height="32px" viewBox="0 0 32 32" version="1.1" xmlns="http://www.w3.org/2000/svg" xmlns:xlink="http://www.w3.org/1999/xlink">
    <title>metax</title>
    <g id="Page-1" stroke="none" stroke-width="1" fill="none" fill-rule="evenodd">
        <g id="metax" fill-rule="nonzero">
            <circle id="Oval" fill="#000000" cx="16" cy="16" r="16"></circle>
            <path d="M13.4246939,9 L9.31605448,9 C9.14151111,9 9,9.14151111 9,9.31605448 L9,13.4246939 C9,13.5992373 9.14151111,13.7407254 9.31605448,13.7407254 L13.4246939,13.7407254 C13.5992373,13.7407254 13.7407254,13.5992373 13.7407254,13.4246939 L13.7407254,9.31605448 C13.7407254,9.14151111 13.5992373,9 13.4246939,9 Z M18.0563498,13.6296373 L13.9477104,13.6296373 C13.773167,13.6296373 13.6316559,13.7711254 13.6316559,13.9456688 L13.6316559,18.0543082 C13.6316559,18.2288746 13.773167,18.3703627 13.9477104,18.3703627 L18.0563498,18.3703627 C18.2308932,18.3703627 18.3724043,18.2288746 18.3724043,18.0543082 L18.3724043,13.9456688 C18.3724043,13.7711254 18.2308932,13.6296373 18.0563498,13.6296373 Z M18.575329,9 L22.6839455,9 C22.8585118,9 23,9.14151111 23,9.31605448 L23,13.4246939 C23,13.5992373 22.8585118,13.7407254 22.6839455,13.7407254 L18.575329,13.7407254 C18.4007627,13.7407254 18.2592746,13.5992373 18.2592746,13.4246939 L18.2592746,9.31605448 C18.2592746,9.14151111 18.4007627,9 18.575329,9 Z M13.4246939,18.2592746 L9.31605448,18.2592746 C9.14151111,18.2592746 9,18.4007627 9,18.575329 L9,22.6839455 C9,22.8585118 9.14151111,23 9.31605448,23 L13.4246939,23 C13.5992373,23 13.7407254,22.8585118 13.7407254,22.6839455 L13.7407254,18.575329 C13.7407254,18.4007627 13.5992373,18.2592746 13.4246939,18.2592746 Z M18.575329,18.2592746 L22.6839455,18.2592746 C22.8585118,18.2592746 23,18.4007627 23,18.575329 L23,22.6839455 C23,22.8585118 22.8585118,23 22.6839455,23 L18.575329,23 C18.4007627,23 18.2592746,22.8585118 18.2592746,22.6839455 L18.2592746,18.575329 C18.2592746,18.4007627 18.4007627,18.2592746 18.575329,18.2592746 Z" id="Shape" fill="#FFFFFF"></path>
        </g>
    </g>
</svg>