<svg viewBox="0 0 32 32" width="32px" color="text" xmlns="http://www.w3.org/2000/svg" class="sc-bdfBwQ CXMyy"><circle cx="16" cy="16" r="16" fill="#F5F5F5"></circle><path d="M8,6 L11.0350526,9.03357895 C13.5427818,7.02641905 16.9698137,6.60971766 19.8854707,7.95743448 C22.8011277,9.3051513 24.7041168,12.1855716 24.8,15.3962105 L24.8,15.6415789 L24.8,25.5778947 L21.7649474,22.5450526 C19.2571806,24.5500066 15.8316383,24.9654047 12.9173428,23.6179565 C10.0030474,22.2705084 8.10061767,19.3916793 8.00368421,16.1824211 L8,15.9363158 L8,6 Z M10.0756842,11.0105263 L10.0756842,15.9363158 C10.077537,18.2973414 11.3801293,20.4652668 13.4638997,21.5753776 C15.5476702,22.6854884 18.0735719,22.5571602 20.0341053,21.2415789 L20.1984211,21.1273684 L10.4809474,11.4157895 L10.0756842,11.0105263 Z M12.7658947,10.3363158 L12.6015789,10.4505263 L22.3190526,20.1628421 L22.7243158,20.5681053 L22.7243158,15.6415789 C22.722463,13.2805534 21.4198707,11.1126279 19.3361003,10.0025172 C17.2523298,8.89240638 14.7264281,9.02073456 12.7658947,10.3363158 Z" fill="#000000"></path></svg>