<svg width="32.000000" height="32.000000" viewBox="0 0 32 32" fill="none" xmlns="http://www.w3.org/2000/svg" xmlns:xlink="http://www.w3.org/1999/xlink">
	<desc>
			Created with Pixso.
	</desc>
	<path id="Path" d="M32 16C32 7.16344 24.8366 0 16 0C7.16343 0 0 7.16344 0 16C0 24.8366 7.16343 32 16 32C24.8366 32 32 24.8366 32 16Z" fill-rule="nonzero" fill="#8697FF"/>
	<path id="path" d="M25.8978 16.9312C26.6834 15.1704 22.7999 10.2512 19.0899 8.20168C16.7514 6.61398 14.3147 6.8321 13.8211 7.52922C12.7381 9.0591 17.4075 10.3555 20.5303 11.8682C19.8591 12.1608 19.2264 12.6857 18.8544 13.3571C17.6902 12.0818 15.1349 10.9836 12.1366 11.8682C10.1161 12.4644 8.43689 13.8697 7.78788 15.9925C7.63015 15.9221 7.45555 15.8831 7.27187 15.8831C6.56947 15.8831 6 16.4544 6 17.1592C6 17.864 6.56947 18.4354 7.27187 18.4354C7.40209 18.4354 7.80918 18.3477 7.80918 18.3477L14.3147 18.3951C11.713 22.5363 9.65694 23.1417 9.65694 23.8591C9.65694 24.5766 11.6242 24.3822 12.3629 24.1147C15.899 22.8345 19.697 18.8446 20.3487 17.6961C23.0855 18.0387 25.3856 18.0793 25.8978 16.9312Z" fill-rule="nonzero" fill="url(#paint_linear_2_14_0)"/>
	<path id="path" d="M20.5028 11.879C20.6476 11.8217 20.6247 11.6075 20.585 11.439C20.4936 11.0518 18.9174 9.49014 17.4373 8.79066C15.4205 7.83754 13.9354 7.88661 13.7158 8.32584C14.1266 9.17072 16.0312 9.96394 18.0204 10.7925C18.8691 11.1459 19.7328 11.5059 20.5028 11.879Z" fill-rule="evenodd" fill="url(#paint_linear_2_15_0)"/>
	<path id="path" d="M17.9074 20.3852C17.4995 20.2288 17.0388 20.0853 16.5149 19.9551C17.0735 18.9524 17.1906 17.4679 16.6632 16.5293C15.9229 15.2121 14.9936 14.5109 12.8342 14.5109C11.6465 14.5109 8.4488 14.9124 8.39206 17.5907C8.38612 17.8717 8.39192 18.1293 8.4122 18.3662L14.2515 18.4086C13.4643 19.6617 12.727 20.591 12.0815 21.2977C12.8565 21.4969 13.496 21.6642 14.0832 21.8178C14.6403 21.9636 15.1503 22.0969 15.684 22.2336C16.4891 21.645 17.246 21.0032 17.9074 20.3852Z" fill-rule="evenodd" fill="url(#paint_linear_2_16_0)"/>
	<path id="path" d="M7.6689 18.0994C7.90741 20.134 9.05986 20.9314 11.4148 21.1674C13.7697 21.4033 15.1206 21.245 16.919 21.4092C18.421 21.5463 19.7621 22.3143 20.2596 22.0489C20.7074 21.81 20.4568 20.9471 19.8577 20.3935C19.0811 19.6758 18.0062 19.1769 16.1149 18.9998C16.4918 17.9643 16.3862 16.5124 15.8008 15.7226C14.9544 14.5804 13.3921 14.0641 11.4148 14.2897C9.34897 14.5254 7.36949 15.5458 7.6689 18.0994Z" fill-rule="nonzero" fill="url(#paint_linear_2_17_0)"/>
	<defs>
		<linearGradient id="paint_linear_2_14_0" x1="11.870687" y1="15.396755" x2="25.704884" y2="19.306679" gradientUnits="userSpaceOnUse">
			<stop stop-color="#FFFFFF"/>
			<stop offset="1.000000" stop-color="#FFFFFF"/>
		</linearGradient>
		<linearGradient id="paint_linear_2_15_0" x1="23.369606" y1="15.133041" x2="13.358949" y2="5.131628" gradientUnits="userSpaceOnUse">
			<stop stop-color="#8697FF"/>
			<stop offset="1.000000" stop-color="#8697FF" stop-opacity="0.000000"/>
		</linearGradient>
		<linearGradient id="paint_linear_2_16_0" x1="18.217501" y1="20.746046" x2="8.617496" y2="15.245237" gradientUnits="userSpaceOnUse">
			<stop stop-color="#8697FF"/>
			<stop offset="1.000000" stop-color="#8697FF" stop-opacity="0.000000"/>
		</linearGradient>
		<linearGradient id="paint_linear_2_17_0" x1="12.696138" y1="15.293232" x2="19.201229" y2="23.530823" gradientUnits="userSpaceOnUse">
			<stop stop-color="#FFFFFF"/>
			<stop offset="0.983895" stop-color="#D1D8FF"/>
		</linearGradient>
	</defs>
</svg>
