<svg width="96.000000" height="96.000000" viewBox="0 0 96 96" fill="none" xmlns="http://www.w3.org/2000/svg" xmlns:xlink="http://www.w3.org/1999/xlink">
	<desc>
			Created with Pixso.
	</desc>
	<g clip-path="url(#clip2_34)">
		<rect id="rect" rx="48.000000" width="96.000000" height="96.000000" fill="#2E79DF"/>
		<path id="path" d="M58.0921 42.5119C59.0433 42.8593 59.9169 43.3133 60.6929 43.8713C61.7256 44.6137 62.5853 45.541 63.2226 46.6491C63.5503 47.219 63.8075 47.8157 63.9963 48.4337C64.1872 49.0562 64.3093 49.7001 64.3652 50.3598C64.7602 54.9977 61.8985 60.3909 56.8059 64.3974L56.576 64.5761C55.6903 65.2566 54.739 65.8956 53.7277 66.4818L30.4045 80C29.72 75.4543 30.9826 70.7855 33.869 67.1861C35.1168 65.6295 36.6683 64.2731 38.4974 63.2129L52.1219 55.3161C53.9787 54.2399 55.1591 52.4409 55.5099 50.4841C55.7891 48.9281 55.5438 47.2727 54.6972 45.8007C54.0165 44.617 53.0389 43.7119 51.9114 43.1248C50.6299 42.4564 49.1542 42.1989 47.7012 42.4096C47.7833 42.3707 47.8656 42.3332 47.9482 42.2969C49.1847 41.9899 50.4062 41.7947 51.5918 41.71C53.958 41.5414 56.1809 41.8129 58.0921 42.5119ZM65.5955 16C66.28 20.5457 65.0174 25.2145 62.131 28.8139C60.8832 30.3705 59.3317 31.7269 57.5026 32.7871L43.8781 40.6839C42.0213 41.7601 40.8409 43.5591 40.4901 45.5159C40.2109 47.0719 40.4562 48.7273 41.3028 50.1993C41.9835 51.383 42.9611 52.2881 44.0886 52.8752C45.3701 53.5436 46.8458 53.8011 48.2988 53.5904C48.2167 53.6293 48.1344 53.6668 48.0518 53.7031C46.8153 54.0101 45.5938 54.2053 44.4082 54.29C42.042 54.4586 39.8191 54.1871 37.9079 53.4881C36.9567 53.1406 36.0831 52.6867 35.3071 52.1287C34.2744 51.3863 33.4147 50.459 32.7774 49.3509C32.4497 48.781 32.1925 48.1843 32.0037 47.5663C31.8128 46.9438 31.6907 46.2999 31.6348 45.6402C31.2398 41.0023 34.1015 35.6091 39.1941 31.6026L39.424 31.4238C40.3097 30.7434 41.261 30.1044 42.2723 29.5183L65.5955 16Z" fill-rule="evenodd" fill="#FFFFFF"/>
	</g>
	<defs>
		<clipPath id="clip2_34">
			<rect id="sender" width="96.000000" height="96.000000" fill="white"/>
		</clipPath>
	</defs>
</svg>
