<?xml version="1.0" encoding="UTF-8"?>
<svg width="32px" height="32px" viewBox="0 0 32 32" version="1.1" xmlns="http://www.w3.org/2000/svg" xmlns:xlink="http://www.w3.org/1999/xlink">
    <title>Icon-Only-Color</title>
    <defs>
        <linearGradient x1="50%" y1="8.37116907e-06%" x2="50%" y2="100%" id="linearGradient-1">
            <stop stop-color="#A8ADFF" offset="0%"></stop>
            <stop stop-color="#FFFFFF" offset="64.8556%"></stop>
        </linearGradient>
        <linearGradient x1="50.0002446%" y1="0%" x2="50.0002446%" y2="100.000239%" id="linearGradient-2">
            <stop stop-color="#B6BAFF" offset="26.0784%"></stop>
            <stop stop-color="#E4E2FF" offset="100%"></stop>
        </linearGradient>
    </defs>
    <g id="Page-1" stroke="none" stroke-width="1" fill="none" fill-rule="evenodd">
        <g id="Icon-Only-Color">
            <circle id="Oval" fill="#747BFF" fill-rule="nonzero" cx="16" cy="16" r="16"></circle>
            <g id="Group-2" transform="translate(9.000000, 4.000000)">
                <path d="M10.0000163,4.2636112 L4.08270853,10.1949097 L4.89187329e-05,9.27758565 L5.00003261,4.2636112 L9.1664411,0.142452544 C9.47550965,-0.163289537 10.0000163,0.0556707121 10.0000163,0.490362573 L10.0000163,4.2636112 Z M5.00022829,14.2634318 L10.000212,9.27748781 L10.000212,4.26351336 L4.20006457,10.0776515 L5.00022829,14.2634318 Z" id="Shape" fill="url(#linearGradient-1)"></path>
                <path d="M5.00008153,19.2355318 L5.00008153,14.235646 L10.0001141,9.2356623 L11.9193428,12.3163195 L11.9933079,12.2423544 L15,14.2355971 L5.8343416,23.3378568 C5.52551764,23.6444794 5.00008153,23.4257638 5.00008153,22.9905827 L5.00008153,19.2355808 L5.00008153,19.2355318 Z" id="Path" fill="url(#linearGradient-2)"></path>
                <path d="M0,9.27768349 L3.21489021,9.27768349 C4.20074943,9.27768349 4.99998369,10.0769177 4.99998369,11.062777 L4.99998369,14.2634808 L1.78509348,14.2634808 C0.799234259,14.2634808 0,13.4642465 0,12.4783383 L0,9.27768349 Z" id="Path" fill="#F1F0FF" fill-rule="nonzero"></path>
                <path d="M10.0000163,9.27768349 L13.2149065,9.27768349 C14.2008147,9.27768349 15,10.0769177 15,11.062777 L15,14.2634808 L11.7851587,14.2634808 C10.7992506,14.2634808 10.0000163,13.4642465 10.0000163,12.4783383 L10.0000163,9.27768349 Z" id="Path" fill="#F1F0FF" fill-rule="nonzero"></path>
            </g>
        </g>
    </g>
</svg>