<?xml version="1.0" encoding="UTF-8"?>
<svg width="32px" height="32px" viewBox="0 0 32 32" version="1.1" xmlns="http://www.w3.org/2000/svg" xmlns:xlink="http://www.w3.org/1999/xlink">
    <title>logo.26659b6d</title>
    <defs>
        <linearGradient x1="13.376763%" y1="15.9065211%" x2="70.2396573%" y2="67.6013087%" id="linearGradient-1">
            <stop stop-color="#FFC10B" offset="0%"></stop>
            <stop stop-color="#FB3F2E" offset="100%"></stop>
        </linearGradient>
        <radialGradient cx="38.5815461%" cy="31.5411117%" fx="38.5815461%" fy="31.5411117%" r="73.4977876%" gradientTransform="translate(0.385815,0.315411),scale(0.989054,1.000000),rotate(67.519600),translate(-0.385815,-0.315411)" id="radialGradient-2">
            <stop stop-color="#FFC10B" offset="0%"></stop>
            <stop stop-color="#FB3F2E" offset="100%"></stop>
        </radialGradient>
    </defs>
    <g id="Page-1" stroke="none" stroke-width="1" fill="none" fill-rule="evenodd">
        <g id="logo.26659b6d" fill-rule="nonzero">
            <circle id="Oval" fill="#17171D" cx="16" cy="16" r="16"></circle>
            <g id="Group-2" transform="translate(5.000000, 5.000000)">
                <path d="M10.6610543,20.2923775 C10.8834173,20.2923775 11.0637219,20.4706915 11.0637219,20.6906402 C11.0637219,20.9105889 10.8834173,21.0888605 10.6610543,21.0888605 C10.4386914,21.0888605 10.2583868,20.9105889 10.2583868,20.6906402 C10.2583868,20.4706915 10.4386914,20.2923775 10.6610543,20.2923775 Z M10.2236134,1.26842184 C10.4203941,1.28466916 10.5793095,1.43377517 10.6059507,1.62708693 L11.0848569,5.1068512 C11.2457206,6.25648886 12.6322913,6.75462424 13.4881981,5.97338905 L18.2866213,1.60593492 C18.4023771,1.50058571 18.5826394,1.50788768 18.6892889,1.62224578 C18.7870862,1.72716721 18.790051,1.88779797 18.696108,1.99614167 L14.5118301,6.82281555 C13.7415225,7.70981079 14.3098822,9.09485671 15.484128,9.19375528 L19.1761155,9.54966308 C19.3599779,9.5673674 19.4944969,9.72899351 19.4765384,9.91069581 C19.4617566,10.0605049 19.3463396,10.1815551 19.1958105,10.2050197 L15.3163605,10.8107787 C14.190018,10.964315 13.6799385,12.2981539 14.4125503,13.1646918 L15.7763765,14.7725242 C15.886245,14.9020453 15.8690489,15.0950564 15.7379183,15.2036119 C15.6268639,15.2956066 15.4660425,15.2991644 15.3508797,15.2122099 L13.6696463,13.9424962 C12.7623631,13.260202 11.4546148,13.8401246 11.3587234,14.9693048 L10.9882455,19.3731926 C10.9729131,19.5551067 10.811287,19.6903034 10.6271704,19.6751827 C10.470881,19.6623492 10.3446212,19.5440097 10.3234438,19.3905157 L9.7359397,15.1365218 C9.57850673,13.9868418 8.19193604,13.4887487 7.33259851,14.2699839 L2.2280133,18.918005 C2.12235065,19.0141929 1.95775124,19.0075432 1.86037321,18.9031808 C1.77102989,18.8073742 1.76831494,18.6607417 1.85404963,18.5618008 L6.30900888,13.4205574 C7.07931651,12.5335622 6.51438754,11.1484739 5.34009935,11.0496177 L1.64729867,10.6936252 C1.46342356,10.6759209 1.3289088,10.5142524 1.34685031,10.3325925 C1.36164486,10.1827834 1.47704488,10.0617756 1.6275359,10.0382263 L5.50443617,9.43259427 C6.63082102,9.27905795 7.14433121,7.94521905 6.41171939,7.07868119 L5.4833011,5.98418954 C5.34704555,5.82357995 5.36839239,5.5842327 5.53099266,5.44962899 C5.66877298,5.33552503 5.86826432,5.33116248 6.01104251,5.43908263 L7.15115034,6.30087675 C8.05843356,6.98317101 9.36618187,6.40324842 9.46207325,5.27406814 L9.76876471,1.64850155 C9.78812088,1.41944652 9.99176299,1.24927745 10.2236134,1.26842184 Z M0.402654842,9.92560472 C0.625034741,9.92560472 0.805309685,10.1039186 0.805309685,10.3238674 C0.805309685,10.5438161 0.625034741,10.72213 0.402654842,10.72213 C0.18027452,10.72213 0,10.5438161 0,10.3238674 C0,10.1039186 0.18027452,9.92560472 0.402654842,9.92560472 Z M20.5973325,9.52124297 C20.8196954,9.52124297 21,9.69955689 21,9.91950562 C21,10.1394543 20.8196954,10.3177259 20.5973325,10.3177259 C20.3749695,10.3177259 20.1946649,10.1394543 20.1946649,9.91950562 C20.1946649,9.69955689 20.3749695,9.52124297 20.5973325,9.52124297 Z M10.1655026,0 C10.3878655,0 10.5681278,0.178302478 10.5681278,0.398249938 C10.5681278,0.618198668 10.3878655,0.796499876 10.1655026,0.796499876 C9.94309727,0.796499876 9.76283503,0.618198668 9.76283503,0.398249938 C9.76283503,0.178302478 9.94309727,0 10.1655026,0 Z" id="Shape" fill="url(#linearGradient-1)"></path>
                <path d="M10.4070099,13.8835806 C12.507641,13.8835806 14.2105601,12.1993401 14.2105601,10.1216653 C14.2105601,8.04403291 12.507641,6.35974999 10.4070099,6.35974999 C8.30637884,6.35974999 6.60345979,8.04403291 6.60345979,10.1216653 C6.60345979,12.1993401 8.30637884,13.8835806 10.4070099,13.8835806 Z" id="Path" fill="url(#radialGradient-2)"></path>
            </g>
        </g>
    </g>
</svg>