<svg width="96" height="96" xmlns="http://www.w3.org/2000/svg" class="sc-bdfBwQ CXMyy">
    <g>
     <title>Layer 1</title>
     <path d="m96,48c0,-26.5097 -21.4903,-48 -48,-48c-26.5097,0 -48,21.4903 -48,48c0,26.5097 21.4903,48 48,48c26.5097,0 48,-21.4903 48,-48z" fill="#0075FF" id="svg_1"/>
     <path stroke="null" id="svg_2" fill="white" d="m47.59293,50.92348c-6.09353,-1.75163 -10.53418,-3.89795 -13.32196,-6.43907c-2.76303,-2.56564 -4.14461,-5.72348 -4.14461,-9.4734c0,-4.24326 1.68994,-7.7464 5.06981,-10.50955c3.4045,-2.78767 7.82041,-4.18156 13.24784,-4.18156c3.70055,0 6.9941,0.71548 9.88052,2.14632c2.91106,1.43084 5.15613,3.4045 6.73499,5.92088c1.60361,2.51637 2.40542,5.26709 2.40542,8.25216l-7.14211,0c0,-3.25648 -1.03615,-5.8098 -3.10846,-7.66008c-2.0723,-1.87491 -4.99568,-2.81242 -8.77035,-2.81242c-3.50314,0 -6.24155,0.77717 -8.21509,2.33128c-1.94903,1.5296 -2.92349,3.66361 -2.92349,6.402c0,2.1957 0.92507,4.05829 2.77547,5.58776c1.87491,1.50497 5.04506,2.88655 9.51035,4.14461c4.49004,1.2583 7.99318,2.65208 10.50955,4.18168c2.541,1.50485 4.41603,3.2688 5.62483,5.29173c1.23355,2.02304 1.85027,4.40371 1.85027,7.14211c0,4.36664 -1.70226,7.86979 -5.10676,10.50955c-3.4045,2.61501 -7.95624,3.92258 -13.65495,3.92258c-3.70055,0 -7.15443,-0.70316 -10.36153,-2.10925c-3.20722,-1.43096 -5.68652,-3.37988 -7.43816,-5.84698c-1.72688,-2.46699 -2.59039,-5.26709 -2.59039,-8.40018l7.142,0c0,3.25648 1.19661,5.83455 3.58959,7.7342c2.41773,1.87491 5.63715,2.81242 9.65848,2.81242c3.74981,0 6.62392,-0.76486 8.62222,-2.29445c1.99829,-1.52948 2.99739,-3.61411 2.99739,-6.25387c0,-2.63976 -0.92507,-4.67501 -2.77535,-6.10584c-1.85027,-1.45559 -5.2054,-2.88655 -10.06548,-4.29263l-0.00002,-0.00001z"/>
    </g>
</svg>