<?xml version="1.0" encoding="UTF-8"?>
<svg width="96px" height="96px" viewBox="0 0 96 96" version="1.1" xmlns="http://www.w3.org/2000/svg" xmlns:xlink="http://www.w3.org/1999/xlink">
    <title>terra</title>
    <g id="Page-1" stroke="none" stroke-width="1" fill="none" fill-rule="evenodd">
        <g id="terra" fill-rule="nonzero">
            <path d="M96,48 C96,21.4903 74.5097,0 48,0 C21.4903,0 0,21.4903 0,48 C0,74.5097 21.4903,96 48,96 C74.5097,96 96,74.5097 96,48 Z" id="svg_1" fill="#FFFFFF"></path>
            <g id="Group" transform="translate(13.000000, 16.000000)">
                <path d="M31.2934541,52.652743 C33.0978772,59.778543 39.5740965,65.2161596 42.843317,64.9933942 C42.9573898,64.9853424 55.2487255,62.540294 61.9764237,50.543184 C67.2133985,41.20852 65.4297161,32.195926 58.3079485,32 C55.7464975,32.1986099 27.8531246,39.0774896 31.2934541,52.6554267" id="Path" fill="#0E3CA5"></path>
                <path d="M36.9263309,0 C32.1645266,0 27.6449381,1.03746317 23.5565471,2.88790547 C22.8412095,3.19219345 22.1443794,3.53948587 21.4697641,3.92793507 C21.0066261,4.17916303 20.5434881,4.42768958 20.0963203,4.69782712 L20.2027888,4.73294501 C18.8479769,5.68653062 17.6821467,6.79679599 16.7265918,8.0826508 C7.26952576,20.7899217 38.9652031,30.025925 55.9096675,30.0583415 C63.7084866,35.7501399 65.8964143,14.0283785 58.2785921,7.99890815 C52.3352409,2.82254633 44.7581156,-0.0159215463 36.9263309,0 Z" id="Path" fill="#0E3CA5"></path>
                <path d="M26.0983051,7.06737286 C21.7766421,13.2512412 7.37825679,17.6100186 5.01073704,16.9301853 L5,16.9040379 L5.29526889,16.3470975 C7.76899083,11.825668 11.2819299,7.92227342 15.5598896,4.94158641 C16.4456963,4.3218922 17.3637142,3.74403391 18.3112589,3.20539675 C20.3217717,2.09413077 22.388654,2.02614743 23.0677725,2 C29.4777919,2.11504871 26.1305163,7.01769274 26.0956209,7.06737286" id="Path" fill="#5493F7"></path>
                <path d="M21.8708403,54.2205942 C22.1929032,56.2586437 21.8627888,64.3137922 21.4280039,64.9931421 C21.0576317,65.0141259 20.2793131,65.0613394 18.0329248,63.8442804 C13.6741297,61.4442153 9.87886584,58.1773607 6.89223414,54.2546929 C4.70738443,51.3814022 2.99586684,48.1917839 1.81974433,44.8014998 C0.609035103,41.2945143 -0.00565608016,37.6173779 0,33.916164 C-0.0066147596,29.8474602 0.737070932,25.8108834 2.19548432,22 L2.20085203,22 C4.7773548,25.3023223 7.75643613,28.289888 10.2873133,31.626309 C12.7001008,34.8001058 16.0173481,39.9752305 16.6909963,41.0821249 C20.883181,47.9464441 21.5514614,52.1825444 21.8708403,54.2205942" id="Path" fill="#5493F7"></path>
                <path d="M70,34.4477473 C70,38.8679245 69.1512573,43.0932876 67.6156641,46.9685115 C63.5843999,51.2860163 36.3945855,40.660742 36.1267187,40.5449068 C32.4084081,38.9232097 21.0890432,33.9844053 20.0679665,26.2286923 C18.5986769,15.071628 41.332884,7.29485401 51.3235229,7 C52.5196412,7.01316315 56.1663441,7.05528514 58.2907141,8.77702181 C65.7434939,15.2541148 70.0125531,24.6124243 70,34.4451147" id="Path" fill="#5493F7"></path>
                <path d="M45.1397584,61.8045998 C46.8017563,56.1316464 61.33407,50.3175222 64.5414816,50.0038108 C64.9373246,49.9645969 65.1054224,50.2338659 64.9319022,50.5423493 C61.5862164,56.4087583 56.6327581,61.2399187 50.6381789,64.3718075 C47.6069982,65.7887388 44.2721577,64.7561043 45.1397584,61.8045998 Z" id="Path" fill="#5493F7"></path>
            </g>
        </g>
    </g>
</svg>