<?xml version="1.0" encoding="UTF-8"?>
<svg width="32px" height="32px" viewBox="0 0 32 32" version="1.1" xmlns="http://www.w3.org/2000/svg" xmlns:xlink="http://www.w3.org/1999/xlink">
    <title>xdefi</title>
    <g id="Page-1" stroke="none" stroke-width="1" fill="none" fill-rule="evenodd">
        <g id="xdefi" fill-rule="nonzero">
            <circle id="Oval" fill="#1F40E0" cx="16" cy="16" r="16"></circle>
            <g id="Group" transform="translate(6.000000, 6.000000)" fill="#FFFFFF">
                <path d="M11.9265694,11.7886801 C10.3665738,12.7819494 8.279307,13.2936894 6.16476756,13.1842677 C4.3865908,13.0951092 2.92877676,12.4393157 2.04732472,11.3616775 C1.27241783,10.3978821 0.972055052,9.12645322 1.1753272,7.66344422 C1.24441791,7.17712543 1.38550842,6.70517516 1.59459874,6.26269875 L1.62368956,6.20080363 C3.64441109,2.21004222 8.14512556,0.253345968 12.3472954,1.53730124 C16.5505562,2.82199336 19.2723666,6.98517688 18.8341861,11.4589413 C18.3960055,15.9334425 14.9211063,19.4585168 10.5531187,19.8600982 L10.650573,21 C15.554559,20.5519972 19.4570934,16.5947624 19.9483647,11.570942 C20.4396361,6.54748998 17.3810993,1.87404015 12.6611127,0.43682078 C7.94112614,-1.00076702 2.89132232,1.20240444 0.628419666,5.6868531 L0.589510685,5.76864308 C0.330403592,6.31805513 0.155661019,6.90434838 0.0713303408,7.50723273 C-0.170850789,9.2904016 0.204420871,10.8772008 1.18550899,12.099261 C2.25823321,13.435164 4.0047737,14.2298531 6.09967683,14.3341169 C8.6498514,14.4660124 11.1858442,13.7531133 12.9851118,12.4418947 L11.926933,11.7886801 L11.9265694,11.7886801 L11.9265694,11.7886801 Z" id="svg_2"></path>
                <path d="M14.0057143,13 C13.0064286,13.9168 10.6835714,15.5792 6.83,15.806 C2.51571429,16.058 0.717857143,14.5768 0.701428571,14.562 L0.352857143,15.0152 L0.703571429,14.5692 L0,15.4612 C0.0764285714,15.5292 1.80035714,17 5.85,17 C6.18107143,17 6.52928571,17 6.89178571,16.9696 C11.5492857,16.6952 14.1082143,14.5492 15,13.6324 L14.0057143,13 L14.0057143,13 Z" id="svg_3"></path>
                <path d="M16.0777143,14.0092857 C15.5018065,14.7751728 14.7972483,15.4258339 13.9982857,15.9296427 C11.1697143,17.7796426 7.57177143,18.0189283 5.05314286,17.8899997 L5,18.9696425 C5.40793715,18.9899505 5.81628296,19.0000725 6.22468571,19 C13.328,19 16.1984,15.7214284 17,14.5503571 L16.0756571,14" id="svg_4"></path>
                <circle id="svg_5" cx="16" cy="10" r="1"></circle>
            </g>
        </g>
    </g>
</svg>